<svg width="169" height="50" viewBox="0 0 169 50" fill="none" xmlns="http://www.w3.org/2000/svg">
<g clip-path="url(#clip0_1020_2122)">
<path d="M155.542 -0.5L157.075 -0.49707C157.508 -0.494617 157.953 -0.487521 158.382 -0.481445L158.381 -0.480469C159.35 -0.470887 160.317 -0.395934 161.272 -0.254883H161.273C162.132 -0.125634 162.968 0.101876 163.761 0.422852L164.098 0.566406L164.102 0.568359C165.776 1.32945 167.168 2.51214 168.1 3.97559L168.279 4.27246L168.281 4.27539C168.734 5.07127 169.049 5.92554 169.213 6.80859L169.321 7.45117C169.385 7.88079 169.429 8.31245 169.456 8.74512L169.483 9.39453V9.39746C169.489 9.78062 169.489 10.1644 169.489 10.543L169.499 11.2334C169.5 11.4628 169.5 11.6918 169.5 11.9199V38.0811C169.5 38.5415 169.5 38.9997 169.489 39.4609C169.489 39.8441 169.489 40.2195 169.483 40.6074V40.6113C169.466 41.4779 169.376 42.342 169.213 43.1963C169.049 44.0799 168.734 44.9343 168.281 45.7305L168.279 45.7344C167.818 46.5287 167.22 47.2517 166.509 47.877C165.803 48.5072 164.989 49.0311 164.1 49.4307L164.099 49.4316C163.208 49.8297 162.256 50.1078 161.275 50.2578H161.271C160.317 50.3975 159.351 50.4725 158.384 50.4834C157.951 50.4919 157.507 50.4971 157.074 50.4971L157.075 50.498C156.566 50.5006 156.049 50.5 155.542 50.5H13.4658C12.9482 50.5 12.4349 50.5006 11.917 50.498V50.4971C11.4818 50.4971 11.0505 50.4929 10.6123 50.4844V50.4834C9.6432 50.4719 8.67628 50.3969 7.71973 50.2578H7.7168C6.86069 50.1274 6.02676 49.8981 5.2373 49.5752L4.90234 49.4307C4.01261 49.0315 3.1989 48.5071 2.49219 47.877V47.8779C1.77798 47.2543 1.18017 46.5301 0.723633 45.7324C0.266918 44.9363 -0.0508349 44.081 -0.216797 43.1963L-0.324219 42.5527C-0.417515 41.911 -0.469423 41.2647 -0.478516 40.6172L-0.5 39.457V10.5469L-0.478516 9.3877C-0.466356 8.52318 -0.378821 7.66088 -0.216797 6.80859C-0.0504059 5.92452 0.267435 5.0701 0.723633 4.27441C1.1798 3.47524 1.77622 2.7486 2.48926 2.12207C3.19843 1.49422 4.0124 0.969844 4.90039 0.567383H4.90234C5.78993 0.168984 6.73927 -0.108104 7.71777 -0.254883H7.71875C8.67631 -0.395262 9.6449 -0.4703 10.6152 -0.480469V-0.481445C11.0497 -0.487529 11.4821 -0.494555 11.917 -0.49707C12.4349 -0.499577 12.9481 -0.5 13.4658 -0.5H155.542Z" stroke="white" stroke-opacity="0.01"/>
<path d="M157.073 0.59375L158.363 0.609375L158.362 0.610352C159.264 0.619841 160.164 0.689104 161.054 0.818359H161.056C161.812 0.932017 162.548 1.13276 163.247 1.41504L163.544 1.54102L163.549 1.54297C165.101 2.2512 166.376 3.37653 167.185 4.77148L167.187 4.77637C167.581 5.47245 167.856 6.21901 167.999 6.99121C168.151 7.79791 168.235 8.61369 168.253 9.43164V9.43652C168.257 9.79395 168.258 10.1779 168.258 10.5557H168.257C168.268 11.0268 168.269 11.4748 168.269 11.9199V38.0811C168.269 38.5299 168.268 38.9751 168.257 39.4248C168.257 39.8307 168.258 40.2073 168.252 40.5947V40.5977C168.235 41.4003 168.151 42.2006 168.002 42.9922L168.003 42.9932C167.861 43.7762 167.583 44.5334 167.183 45.2383L167.18 45.2432C166.779 45.932 166.261 46.5584 165.644 47.0996L165.643 47.0986C165.104 47.5807 164.495 47.9924 163.831 48.3213L163.542 48.458C162.758 48.8095 161.919 49.0539 161.056 49.1836H161.053C160.159 49.3128 159.256 49.3817 158.351 49.3916L158.352 49.3926C157.935 49.4011 157.498 49.4053 157.074 49.4053L157.075 49.4062L155.544 49.4092H155.543L11.9277 49.4062C11.4937 49.4062 11.0702 49.4011 10.6406 49.3926V49.3916C9.73589 49.381 8.83274 49.312 7.93945 49.1836H7.93555C7.07793 49.0529 6.24577 48.8096 5.4668 48.4609V48.46C4.69135 48.1125 3.98127 47.6563 3.36523 47.1064V47.1055C2.74214 46.5627 2.22067 45.9316 1.82324 45.2354V45.2363C1.42248 44.5373 1.14415 43.7861 0.999023 43.0088L0.898438 42.4043C0.811997 41.8026 0.764009 41.1968 0.754883 40.5898L0.741211 39.9111C0.73918 39.7846 0.73757 39.6657 0.736328 39.5791C0.735713 39.5362 0.735689 39.5011 0.735352 39.4766C0.735186 39.4645 0.734463 39.4548 0.734375 39.4482V10.5381C0.734468 10.5317 0.735177 10.5225 0.735352 10.5107C0.735709 10.4866 0.73568 10.4516 0.736328 10.4092C0.73763 10.324 0.740105 10.2072 0.742188 10.083C0.746219 9.8425 0.751631 9.56623 0.755859 9.43066H0.754883C0.766047 8.61784 0.846975 7.80652 0.99707 7.00488C1.1242 6.32316 1.35393 5.66153 1.67773 5.03711L1.82227 4.77148C2.21906 4.07447 2.73916 3.44177 3.36035 2.89648C3.97916 2.34787 4.6892 1.89037 5.46387 1.53906L5.4668 1.53711C6.24432 1.18944 7.07544 0.947731 7.93164 0.819336H7.93359C8.83133 0.689382 9.73903 0.619366 10.6484 0.609375L11.9229 0.59375H157.073Z" stroke="white" stroke-opacity="0.01"/>
<path d="M34.9762 25.3783C34.9914 24.335 35.3045 23.312 35.8864 22.4046C36.4683 21.4972 37.3001 20.7347 38.3043 20.1883C37.6663 19.3818 36.8247 18.7181 35.8462 18.2499C34.8677 17.7818 33.7794 17.522 32.6677 17.4912C30.2961 17.2708 27.997 18.7472 26.7884 18.7472C25.5565 18.7472 23.6959 17.513 21.6922 17.5495C20.3962 17.5866 19.1331 17.9202 18.0261 18.5177C16.919 19.1153 16.0057 19.9565 15.3752 20.9594C12.6438 25.1449 14.6811 31.2962 17.2976 34.6795C18.6066 36.3362 20.1365 38.1867 22.1384 38.1211C24.0973 38.0492 24.8289 37.0155 27.1935 37.0155C29.5361 37.0155 30.2226 38.1211 32.265 38.0794C34.367 38.0492 35.6914 36.4153 36.9545 34.7429C37.8951 33.5625 38.6188 32.2578 39.099 30.8773C37.8778 30.4201 36.8356 29.6549 36.1025 28.6771C35.3693 27.6992 34.9776 26.5519 34.9762 25.3783Z" fill="#FAFCFF"/>
<path d="M28.9658 17.0615C29.9951 16.7176 31.3095 16.3494 32.6963 16.4629L33.1641 16.4883C34.2536 16.5747 35.3172 16.8568 36.29 17.3223C37.4019 17.8543 38.3698 18.6147 39.1104 19.5508L39.8682 20.5078L38.7959 21.0918C37.9341 21.5607 37.2347 22.2071 36.752 22.96C36.2731 23.7068 36.0202 24.5375 36.0049 25.377L36.0195 25.7295C36.0886 26.5502 36.3946 27.3534 36.9248 28.0605C37.5321 28.8706 38.4099 29.521 39.46 29.9141L40.4004 30.2666L40.0703 31.2148C39.5537 32.7003 38.7767 34.0986 37.7744 35.3613L37.7754 35.3623C36.5699 36.9583 34.9602 39.0652 32.2852 39.1064C31.0479 39.1316 30.2013 38.7973 29.4795 38.5254C28.7893 38.2654 28.1737 38.0439 27.1934 38.0439C26.1889 38.044 25.5475 38.2554 24.8701 38.5059C24.1716 38.7641 23.3461 39.1055 22.1758 39.1484H22.1719C20.8226 39.1926 19.7 38.5839 18.8008 37.8369C17.91 37.0968 17.1387 36.1368 16.4912 35.3174L16.4844 35.3086C15.0835 33.4971 13.8497 30.9681 13.3223 28.3213C12.8119 25.7603 12.9431 22.9711 14.3721 20.623L14.5137 20.3975C15.2441 19.2416 16.2902 18.2869 17.5381 17.6133C18.7908 16.9371 20.2117 16.563 21.6631 16.5215H21.8975C23.0137 16.5439 24.0481 16.8771 24.8691 17.1641C25.3331 17.3262 25.701 17.4644 26.0527 17.5713C26.4035 17.6778 26.6344 17.7187 26.7881 17.7188C26.9167 17.7188 27.1542 17.6729 27.5703 17.54C28.0067 17.4007 28.3844 17.2558 28.9658 17.0615Z" stroke="white" stroke-opacity="0.01" stroke-width="2.05652"/>
<path d="M31.1163 15.2695C32.2624 14.0518 32.8271 12.4865 32.6903 10.9062C30.9393 11.069 29.3219 11.8097 28.1603 12.9808C27.5924 13.5528 27.1574 14.2184 26.8802 14.9394C26.6031 15.6603 26.4892 16.4226 26.5451 17.1825C27.4209 17.1905 28.2873 17.0225 29.0791 16.6911C29.871 16.3597 30.5675 15.8737 31.1163 15.2695Z" fill="#FAFCFF"/>
<path d="M33.7148 10.8174C33.8783 12.7068 33.1996 14.5568 31.8652 15.9746L31.8643 15.9736C31.2112 16.6884 30.3938 17.2557 29.4766 17.6396C28.5536 18.0259 27.5483 18.2201 26.5361 18.2109L25.5889 18.2021L25.5195 17.2578C25.4524 16.3446 25.5901 15.4307 25.9209 14.5703C26.2101 13.818 26.6406 13.1227 27.1885 12.5127L27.4307 12.2559C28.7738 10.9021 30.6211 10.0664 32.5947 9.88281L33.626 9.78613L33.7148 10.8174Z" stroke="white" stroke-opacity="0.01" stroke-width="2.05652"/>
<path d="M59.7389 33.9285H53.054L51.4487 38.1241H48.6172L54.949 22.6016H57.8908L64.2227 38.1241H61.3429L59.7389 33.9285ZM53.7464 31.9925H59.0453L56.4331 25.1834H56.36L53.7464 31.9925Z" fill="#FAFCFF"/>
<path d="M58.582 21.5732L58.8428 22.2129L65.1748 37.7354L65.7529 39.1523H60.6348L60.3828 38.4912L59.0312 34.957H53.7617L52.4092 38.4912L52.1562 39.1523H47.0869L47.665 37.7354L53.9971 22.2129L54.2578 21.5732H58.582ZM55.2422 30.9639H57.5488L56.3955 27.958L55.2422 30.9639Z" stroke="white" stroke-opacity="0.01" stroke-width="2.05652"/>
<path d="M77.8962 32.4672C77.8962 35.984 75.7695 38.2435 72.5601 38.2435C71.7471 38.2812 70.9386 38.1154 70.2271 37.7653C69.5156 37.4151 68.9299 36.8947 68.537 36.2635H68.4763V41.869H65.8517V26.808H68.3922V28.6903H68.4405C68.8514 28.0622 69.447 27.5445 70.1639 27.1922C70.8808 26.8399 71.6922 26.6662 72.5118 26.6896C75.757 26.6896 77.8962 28.9601 77.8962 32.4672ZM75.1985 32.4672C75.1985 30.1759 73.8606 28.6696 71.8195 28.6696C69.8141 28.6696 68.4653 30.2077 68.4653 32.4672C68.4653 34.7475 69.8141 36.2746 71.8195 36.2746C73.8607 36.2746 75.1985 34.7792 75.1985 32.4672Z" fill="#FAFCFF"/>
<path d="M72.5118 25.6611C74.3845 25.6611 76.0146 26.3235 77.172 27.5615C78.323 28.7929 78.9239 30.505 78.924 32.4668C78.924 34.4315 78.3274 36.1436 77.1847 37.374C76.045 38.6011 74.4437 39.2586 72.6066 39.2695L72.6075 39.2705C72.602 39.2708 72.5965 39.2703 72.5909 39.2705C72.5807 39.2705 72.57 39.2715 72.5597 39.2715V39.2705C71.5941 39.3074 70.6298 39.1094 69.7726 38.6875C69.6815 38.6427 69.593 38.5935 69.505 38.5439V42.8975H64.8234V25.7793H69.42V26.4238C69.5151 26.3701 69.6115 26.318 69.7101 26.2695C70.5724 25.8458 71.5396 25.639 72.5118 25.6621V25.6611ZM71.8195 29.6982C71.0966 29.6982 70.545 29.9672 70.1622 30.4014C69.7697 30.8467 69.4934 31.5386 69.4933 32.4668C69.4933 33.4074 69.77 34.102 70.1613 34.5459C70.5426 34.9785 71.0944 35.2461 71.8195 35.2461C72.5739 35.2461 73.1291 34.9783 73.506 34.5547C73.8934 34.1191 74.17 33.4285 74.17 32.4668C74.17 31.5177 73.8945 30.8295 73.506 30.3926C73.1277 29.9672 72.5718 29.6982 71.8195 29.6982Z" stroke="white" stroke-opacity="0.01" stroke-width="2.05652"/>
<path d="M91.9663 32.4672C91.9663 35.984 89.8396 38.2435 86.6303 38.2435C85.8173 38.2812 85.0088 38.1154 84.2973 37.7652C83.5858 37.4151 83 36.8946 82.6072 36.2635H82.5465V41.869H79.9219V26.808H82.4623V28.6903H82.5106C82.9215 28.0622 83.5171 27.5445 84.234 27.1922C84.951 26.8399 85.7624 26.6662 86.582 26.6896C89.8272 26.6896 91.9663 28.9601 91.9663 32.4672ZM89.2687 32.4672C89.2687 30.1759 87.9308 28.6696 85.8896 28.6696C83.8843 28.6696 82.5355 30.2076 82.5355 32.4672C82.5355 34.7474 83.8843 36.2745 85.8896 36.2745C87.9309 36.2745 89.2687 34.7792 89.2687 32.4672H89.2687Z" fill="#FAFCFF"/>
<path d="M86.582 25.6611C88.4545 25.6611 90.0849 26.3227 91.2422 27.5605C92.3933 28.792 92.9941 30.5049 92.9941 32.4668C92.9941 34.4315 92.3976 36.1436 91.2549 37.374C90.1152 38.6011 88.5139 39.2586 86.6768 39.2695L86.6777 39.2705C86.6722 39.2708 86.6667 39.2703 86.6611 39.2705C86.6509 39.2705 86.6402 39.2715 86.6299 39.2715V39.2705C85.6643 39.3074 84.7 39.1094 83.8428 38.6875C83.7517 38.6427 83.6632 38.5935 83.5752 38.5439V42.8975H78.8936V25.7793H83.4902V26.4238C83.5853 26.3701 83.6817 26.318 83.7803 26.2695C84.6426 25.8458 85.6098 25.639 86.582 25.6621V25.6611ZM85.8896 29.6982C85.1668 29.6982 84.6152 29.9672 84.2324 30.4014C83.8399 30.8467 83.5636 31.5386 83.5635 32.4668C83.5635 33.4074 83.8402 34.102 84.2314 34.5459C84.6128 34.9785 85.1646 35.2461 85.8896 35.2461C86.6441 35.2461 87.1993 34.9783 87.5762 34.5547C87.9636 34.1191 88.2402 33.4285 88.2402 32.4668C88.2402 31.5177 87.9647 30.8295 87.5762 30.3926C87.1979 29.9672 86.642 29.6982 85.8896 29.6982Z" stroke="white" stroke-opacity="0.01" stroke-width="2.05652"/>
<path d="M101.273 33.8001C101.467 35.3394 103.157 36.3501 105.465 36.3501C107.678 36.3501 109.269 35.3394 109.269 33.9514C109.269 32.7466 108.309 32.0252 106.036 31.5308L103.763 31.0461C100.543 30.3577 99.048 29.0247 99.048 26.8616C99.048 24.1833 101.685 22.3438 105.43 22.3438C109.135 22.3438 111.676 24.1833 111.761 26.8616H109.112C108.953 25.3125 107.507 24.3774 105.392 24.3774C103.278 24.3774 101.831 25.3235 101.831 26.7004C101.831 27.7979 102.755 28.4436 105.016 28.9379L106.948 29.3579C110.546 30.111 112.041 31.3904 112.041 33.6608C112.041 36.5649 109.428 38.3837 105.271 38.3837C101.382 38.3837 98.7556 36.6076 98.5859 33.8L101.273 33.8001Z" fill="#FAFCFF"/>
<path d="M105.43 21.3154C107.442 21.3155 109.228 21.8143 110.552 22.7627C111.894 23.7248 112.735 25.139 112.789 26.8291L112.823 27.8896H108.184L108.089 26.9658C108.043 26.5197 107.825 26.1661 107.418 25.8965C106.986 25.6106 106.31 25.4053 105.393 25.4053C104.474 25.4053 103.795 25.6134 103.381 25.8838C102.989 26.1399 102.859 26.4225 102.859 26.7002C102.859 26.8808 102.899 27.0165 103.166 27.2041C103.506 27.4426 104.136 27.6932 105.235 27.9336H105.234L107.157 28.3516H107.158C109.014 28.74 110.489 29.2925 111.509 30.1562C112.589 31.0715 113.069 32.2598 113.069 33.6611C113.069 35.4655 112.238 36.9546 110.803 37.9551C109.403 38.9306 107.482 39.4121 105.271 39.4121C103.182 39.4121 101.333 38.9369 99.9531 37.9941C98.5483 37.0345 97.6651 35.608 97.5596 33.8623L97.4941 32.7715H102.179L102.293 33.6709C102.343 34.0666 102.583 34.4545 103.108 34.7725C103.646 35.0978 104.45 35.3223 105.466 35.3223C106.429 35.3222 107.176 35.0996 107.647 34.8018C108.109 34.5099 108.241 34.2018 108.241 33.9512C108.241 33.6878 108.166 33.5055 107.889 33.2979C107.545 33.04 106.912 32.7732 105.817 32.5352V32.5342L103.549 32.0518C101.86 31.6907 100.482 31.1342 99.5156 30.2754C98.5046 29.3772 98.0195 28.216 98.0195 26.8613C98.0196 25.1435 98.8802 23.7179 100.242 22.7578C101.584 21.8122 103.401 21.3154 105.43 21.3154Z" stroke="white" stroke-opacity="0.01" stroke-width="2.05652"/>
<path d="M117.699 24.125V26.8032H120.131V28.6428H117.699V34.8818C117.699 35.8511 118.186 36.3027 119.255 36.3027C119.544 36.2983 119.832 36.2803 120.118 36.249V38.0776C119.638 38.1571 119.149 38.1931 118.661 38.185C116.072 38.185 115.062 37.3244 115.062 35.1296V28.6428H113.203V26.8032H115.062V24.125H117.699Z" fill="#FAFCFF"/>
<path d="M118.728 23.0967V25.7754H121.159V29.6709H118.728V34.8818C118.728 35.0917 118.762 35.1757 118.775 35.2002C118.802 35.2161 118.921 35.2723 119.245 35.2734C119.5 35.2693 119.754 35.2542 120.007 35.2266L121.146 35.1025V38.9502L120.286 39.0918C119.75 39.1805 119.205 39.2199 118.66 39.2119V39.2129C118.659 39.2129 118.658 39.2119 118.656 39.2119C118.652 39.2119 118.648 39.213 118.644 39.2129V39.2119C117.29 39.2101 116.084 38.9941 115.225 38.2637C114.317 37.4924 114.034 36.3631 114.034 35.1299V29.6709H112.175V25.7754H114.034V23.0967H118.728Z" stroke="white" stroke-opacity="0.01" stroke-width="2.05652"/>
<path d="M121.547 32.4702C121.547 28.9094 123.916 26.6719 127.611 26.6719C131.318 26.6719 133.677 28.9094 133.677 32.4702C133.677 36.0408 131.331 38.2685 127.611 38.2685C123.893 38.2685 121.547 36.0408 121.547 32.4702ZM131.003 32.4702C131.003 30.0276 129.738 28.5859 127.611 28.5859C125.484 28.5859 124.221 30.0386 124.221 32.4702C124.221 34.9226 125.484 36.3533 127.611 36.3533C129.738 36.3533 131.003 34.9226 131.003 32.4702H131.003Z" fill="#FAFCFF"/>
<path d="M127.611 25.6436C129.671 25.6436 131.462 26.2679 132.744 27.4912C134.032 28.7197 134.705 30.4551 134.705 32.4697C134.705 34.4871 134.037 36.2235 132.749 37.4521C131.467 38.6755 129.675 39.2968 127.611 39.2969C125.548 39.2969 123.757 38.6756 122.475 37.4521C121.187 36.2235 120.519 34.4871 120.519 32.4697C120.519 30.4538 121.196 28.719 122.484 27.4912C123.768 26.2687 125.557 25.6436 127.611 25.6436ZM127.611 29.6143C126.796 29.6143 126.25 29.8835 125.894 30.292C125.521 30.719 125.249 31.4223 125.249 32.4697C125.249 33.5297 125.523 34.2318 125.893 34.6543C126.246 35.0582 126.791 35.3252 127.611 35.3252C128.431 35.3252 128.977 35.0576 129.331 34.6533C129.701 34.2307 129.975 33.5292 129.975 32.4697C129.975 31.4161 129.701 30.7139 129.33 30.2891C128.975 29.8826 128.429 29.6143 127.611 29.6143Z" stroke="white" stroke-opacity="0.01" stroke-width="2.05652"/>
<path d="M135.844 26.8079H138.347V28.7341H138.408C138.577 28.1325 138.975 27.6009 139.535 27.2285C140.095 26.8562 140.783 26.6658 141.483 26.6895C141.786 26.6885 142.087 26.7176 142.383 26.7761V28.949C142.001 28.8457 141.602 28.7983 141.203 28.8086C140.822 28.7949 140.442 28.8544 140.089 28.983C139.736 29.1116 139.419 29.3063 139.159 29.5537C138.899 29.801 138.703 30.0952 138.584 30.4161C138.465 30.7369 138.425 31.0768 138.468 31.4124V38.125H135.844L135.844 26.8079Z" fill="#FAFCFF"/>
<path d="M143.411 30.292L142.114 29.9414C141.829 29.8644 141.53 29.8292 141.229 29.8369H141.198L141.166 29.8359C140.915 29.827 140.668 29.8668 140.441 29.9492C140.215 30.0317 140.021 30.1536 139.868 30.2988C139.716 30.4437 139.61 30.6073 139.548 30.7744C139.486 30.9409 139.467 31.113 139.488 31.2812L139.497 31.3467V39.1533H134.815V25.7793H139.375V26.1377C140.02 25.8078 140.747 25.6445 141.48 25.6631V25.6611C141.851 25.66 142.221 25.6957 142.583 25.7676L143.411 25.9316V30.292Z" stroke="white" stroke-opacity="0.01" stroke-width="2.05652"/>
<path d="M154.479 34.8042C154.126 36.8586 151.866 38.2686 148.974 38.2686C145.254 38.2686 142.945 36.0627 142.945 32.5239C142.945 28.9741 145.266 26.6719 148.863 26.6719C152.401 26.6719 154.626 28.8227 154.626 32.2541V33.0501H145.595V33.1904C145.553 33.6069 145.612 34.0265 145.768 34.4213C145.923 34.8161 146.172 35.1771 146.497 35.4803C146.823 35.7835 147.217 36.0219 147.654 36.1798C148.092 36.3377 148.562 36.4114 149.034 36.396C149.655 36.4474 150.277 36.3203 150.809 36.0335C151.341 35.7467 151.754 35.3155 151.987 34.8042L154.479 34.8042ZM145.607 31.4265H152C152.023 31.052 151.959 30.6773 151.811 30.3257C151.663 29.9742 151.435 29.6536 151.141 29.3839C150.846 29.1141 150.492 28.9012 150.1 28.7585C149.708 28.6157 149.287 28.5461 148.863 28.5542C148.436 28.5519 148.012 28.6246 147.617 28.7681C147.221 28.9115 146.862 29.1228 146.559 29.3899C146.256 29.6569 146.016 29.9744 145.853 30.3239C145.69 30.6735 145.606 31.0482 145.607 31.4265V31.4265Z" fill="#FAFCFF"/>
<path d="M146.74 34.0781C146.838 34.3109 146.99 34.5343 147.198 34.7285C147.417 34.9326 147.691 35.1 148.004 35.2129C148.317 35.3257 148.657 35.3794 149.001 35.3682L149.061 35.3662L149.119 35.3711C149.547 35.4066 149.97 35.3173 150.321 35.1279C150.672 34.9391 150.919 34.6692 151.052 34.3779L151.188 34.0781H146.74ZM148.858 29.582C148.551 29.5804 148.247 29.6331 147.968 29.7344C147.688 29.8357 147.441 29.9829 147.239 30.1611C147.155 30.2356 147.081 30.3158 147.014 30.3984H150.676C150.61 30.3091 150.534 30.2229 150.446 30.1426C150.256 29.968 150.019 29.8233 149.748 29.7246C149.477 29.6259 149.182 29.5763 148.883 29.582H148.858ZM155.654 33.7764H155.699L155.654 34.0381V34.0781H155.647L155.493 34.9785C155.016 37.7522 152.096 39.2969 148.974 39.2969C146.912 39.2969 145.13 38.6826 143.855 37.4678C142.576 36.2473 141.917 34.5231 141.917 32.5234C141.917 30.5198 142.577 28.7782 143.832 27.5361C145.086 26.2949 146.842 25.6436 148.863 25.6436C150.841 25.6436 152.558 26.2483 153.786 27.4375C155.018 28.6304 155.654 30.3104 155.654 32.2539V33.7764Z" stroke="white" stroke-opacity="0.01" stroke-width="2.05652"/>
<path d="M53.4189 10.9147C53.9691 10.8798 54.5213 10.9533 55.0355 11.1301C55.5497 11.3069 56.0132 11.5825 56.3925 11.9371C56.7719 12.2916 57.0575 12.7162 57.229 13.1803C57.4005 13.6444 57.4534 14.1364 57.384 14.6208C57.384 17.0036 55.929 18.3733 53.4189 18.3733H50.375V10.9147H53.4189ZM51.6838 17.3185H53.2727C53.6658 17.3393 54.0593 17.2822 54.4245 17.1514C54.7896 17.0207 55.1172 16.8195 55.3834 16.5625C55.6496 16.3056 55.8477 15.9993 55.9633 15.666C56.0789 15.3328 56.1091 14.9809 56.0517 14.636C56.105 14.2924 56.0717 13.9427 55.9543 13.6119C55.8369 13.281 55.6383 12.9773 55.3727 12.7224C55.1071 12.4675 54.7811 12.2677 54.418 12.1374C54.055 12.0071 53.6638 11.9495 53.2727 11.9687H51.6838V17.3185Z" fill="#FAFCFF"/>
<path d="M53.4053 9.88672C54.072 9.85097 54.7419 9.94224 55.3701 10.1582C56.0143 10.3797 56.6049 10.7277 57.0947 11.1855C57.5851 11.6439 57.9636 12.2024 58.1934 12.8242C58.4143 13.4224 58.4879 14.059 58.4102 14.6895C58.3962 16.0652 57.9626 17.2742 57.0488 18.1377C56.1281 19.0078 54.8546 19.4014 53.4189 19.4014H49.3467V9.88672H53.4053ZM53.2979 12.9971H52.7119V16.29H53.2998L53.3271 16.292C53.5862 16.3057 53.8435 16.2676 54.0781 16.1836C54.3126 16.0996 54.5128 15.973 54.6689 15.8223C54.8247 15.6719 54.9321 15.5022 54.9922 15.3291C55.052 15.1567 55.066 14.9785 55.0371 14.8047L55.0107 14.6416L55.0352 14.4785C55.062 14.3052 55.0462 14.1278 54.9854 13.9561C54.9241 13.7835 54.817 13.6135 54.6611 13.4639C54.5048 13.3139 54.3039 13.1893 54.0703 13.1055C53.8367 13.0217 53.5812 12.9834 53.3232 12.9961L53.2979 12.9971Z" stroke="white" stroke-opacity="0.01" stroke-width="2.05652"/>
<path d="M58.8579 15.5611C58.818 15.1912 58.8658 14.818 58.9983 14.4654C59.1308 14.1128 59.3451 13.7886 59.6275 13.5137C59.9099 13.2387 60.2541 13.019 60.638 12.8686C61.022 12.7183 61.4372 12.6406 61.857 12.6406C62.2768 12.6406 62.692 12.7183 63.0759 12.8686C63.4599 13.019 63.8041 13.2387 64.0864 13.5137C64.3688 13.7886 64.5831 14.1128 64.7157 14.4654C64.8482 14.818 64.896 15.1912 64.856 15.5611C64.8968 15.9314 64.8495 16.3051 64.7174 16.6583C64.5852 17.0114 64.371 17.3362 64.0885 17.6117C63.8061 17.8872 63.4616 18.1074 63.0773 18.2581C62.693 18.4087 62.2773 18.4866 61.857 18.4866C61.4367 18.4866 61.021 18.4087 60.6367 18.2581C60.2523 18.1074 59.9079 17.8872 59.6254 17.6117C59.343 17.3362 59.1288 17.0114 58.9966 16.6583C58.8644 16.3051 58.8172 15.9314 58.8579 15.5611ZM63.5651 15.5611C63.5651 14.341 62.9458 13.6275 61.8591 13.6275C60.7681 13.6275 60.1544 14.341 60.1544 15.5611C60.1544 16.791 60.7682 17.499 61.8591 17.499C62.9459 17.499 63.5651 16.7861 63.5651 15.5611H63.5651Z" fill="#FAFCFF"/>
<path d="M61.8574 11.6123C62.403 11.6124 62.9457 11.7132 63.4512 11.9111C63.9567 12.1091 64.4186 12.4023 64.8037 12.7773C65.1891 13.1527 65.4896 13.603 65.6777 14.1035C65.8526 14.5687 65.9232 15.0628 65.8867 15.5566C65.9254 16.0533 65.8558 16.5505 65.6807 17.0186C65.493 17.52 65.1922 17.9715 64.8066 18.3477C64.4214 18.7235 63.9583 19.0174 63.4521 19.2158C62.9463 19.414 62.4034 19.5146 61.8574 19.5146C61.3112 19.5146 60.7677 19.4141 60.2617 19.2158C59.7556 19.0174 59.2925 18.7235 58.9072 18.3477C58.5217 17.9715 58.2209 17.5199 58.0332 17.0186C57.858 16.5505 57.7885 16.0532 57.8271 15.5566C57.7907 15.0628 57.8613 14.5687 58.0361 14.1035C58.2243 13.6031 58.5248 13.1527 58.9102 12.7773C59.2952 12.4023 59.7572 12.1091 60.2627 11.9111C60.7683 11.7131 61.3117 11.6123 61.8574 11.6123ZM61.8594 14.6562C61.5493 14.6562 61.4288 14.7486 61.3711 14.8145C61.2959 14.9004 61.1826 15.112 61.1826 15.5615C61.1827 16.0177 61.297 16.2289 61.3711 16.3135C61.4276 16.3779 61.547 16.4707 61.8594 16.4707C62.1663 16.4706 62.2876 16.3788 62.3467 16.3115C62.4133 16.2356 62.5093 16.0634 62.5322 15.7197L62.5371 15.5615L62.5322 15.4043C62.5095 15.0626 62.4133 14.8913 62.3467 14.8154C62.2873 14.748 62.166 14.6563 61.8594 14.6562Z" stroke="white" stroke-opacity="0.01" stroke-width="2.05652"/>
<path d="M72.8326 18.3708H71.5306L70.2163 14.2253H70.117L68.8081 18.3708H67.5186L65.7656 12.7422H67.0386L68.1778 17.0372H68.2716L69.5791 12.7422H70.7831L72.0906 17.0372H72.1899L73.3236 12.7422H74.5786L72.8326 18.3708Z" fill="#FAFCFF"/>
<path d="M67.8301 11.7139L68.0322 12.4785L68.2891 13.4473L68.5957 12.4424L68.8174 11.7139H71.5449L71.7666 12.4424L72.0723 13.4482L72.3291 12.4795L72.5312 11.7139H75.9746L75.5605 13.0469L73.8145 18.6758L73.5898 19.3994H70.7783L70.5508 18.6816L70.168 17.4766L69.7891 18.6807L69.5615 19.3994H66.7617L66.5371 18.6768L64.7842 13.0479L64.3682 11.7139H67.8301Z" stroke="white" stroke-opacity="0.01" stroke-width="2.05652"/>
<path d="M76.0469 12.7392H77.255V13.6334H77.3488C77.5079 13.3122 77.7763 13.043 78.1165 12.8632C78.4566 12.6835 78.8517 12.6021 79.2466 12.6305C79.556 12.6099 79.8667 12.6512 80.1557 12.7514C80.4446 12.8515 80.7044 13.0079 80.9158 13.2089C81.1272 13.41 81.2848 13.6505 81.3769 13.9128C81.469 14.1751 81.4932 14.4524 81.4478 14.724V18.3678H80.1927V15.003C80.1927 14.0985 79.7486 13.6486 78.8204 13.6486C78.6103 13.64 78.4006 13.6716 78.2056 13.7414C78.0107 13.8112 77.835 13.9175 77.6908 14.0529C77.5466 14.1884 77.4372 14.3499 77.37 14.5263C77.3029 14.7027 77.2797 14.8899 77.3019 15.075V18.3679H76.0469L76.0469 12.7392Z" fill="#FAFCFF"/>
<path d="M78.3301 19.3965H75.0186V11.7109H78.25C78.5724 11.6217 78.9088 11.5865 79.2441 11.6025C79.6671 11.5827 80.0922 11.6407 80.4922 11.7793C80.913 11.9251 81.3011 12.1568 81.624 12.4639C81.9474 12.7714 82.198 13.1487 82.3467 13.5723C82.4842 13.9641 82.528 14.3798 82.4756 14.791V19.3965H79.1641V15.0029C79.1641 14.8296 79.1391 14.7483 79.126 14.7178C79.0932 14.7036 79.0058 14.6768 78.8203 14.6768H78.7988L78.7783 14.6758C78.6984 14.6725 78.6202 14.6855 78.5518 14.71C78.4836 14.7344 78.431 14.7685 78.3945 14.8027C78.3587 14.8365 78.34 14.8681 78.3311 14.8916C78.3224 14.9144 78.3211 14.9344 78.3232 14.9521L78.3301 15.0137V19.3965Z" stroke="white" stroke-opacity="0.01" stroke-width="2.05652"/>
<path d="M83.4531 10.5469H84.7082V18.3728H83.4531V10.5469Z" fill="#FAFCFF"/>
<path d="M85.7363 9.51855V19.4014H82.4248V9.51855H85.7363Z" stroke="white" stroke-opacity="0.01" stroke-width="2.05652"/>
<path d="M86.4517 15.5534C86.4117 15.1835 86.4595 14.8102 86.5921 14.4576C86.7247 14.105 86.939 13.7808 87.2214 13.5059C87.5038 13.2309 87.848 13.0112 88.232 12.8608C88.616 12.7105 89.0312 12.6328 89.451 12.6328C89.8709 12.6328 90.2861 12.7105 90.6701 12.8608C91.054 13.0112 91.3982 13.2309 91.6806 13.5059C91.9631 13.7808 92.1774 14.105 92.31 14.4576C92.4425 14.8102 92.4904 15.1835 92.4504 15.5534C92.4911 15.9237 92.4438 16.2974 92.3116 16.6506C92.1794 17.0037 91.9651 17.3285 91.6827 17.604C91.4002 17.8795 91.0557 18.0997 90.6714 18.2503C90.2871 18.401 89.8714 18.4788 89.451 18.4788C89.0307 18.4788 88.615 18.401 88.2307 18.2503C87.8463 18.0997 87.5019 17.8795 87.2194 17.604C86.9369 17.3285 86.7227 17.0037 86.5905 16.6506C86.4582 16.2974 86.411 15.9237 86.4517 15.5534ZM91.1588 15.5534C91.1588 14.3333 90.5395 13.6198 89.4528 13.6198C88.3618 13.6198 87.7481 14.3333 87.7481 15.5534C87.7481 16.7833 88.3619 17.4913 89.4528 17.4913C90.5396 17.4913 91.1588 16.7784 91.1588 15.5534H91.1588Z" fill="#FAFCFF"/>
<path d="M89.4512 11.6045C89.9969 11.6045 90.5394 11.7054 91.0449 11.9033C91.5506 12.1013 92.0132 12.3945 92.3984 12.7695C92.7837 13.1448 93.0843 13.5953 93.2725 14.0957C93.4477 14.5618 93.5174 15.0569 93.4805 15.5518C93.5186 16.0475 93.4493 16.5435 93.2744 17.0107C93.0867 17.5122 92.786 17.9637 92.4004 18.3398C92.0151 18.7156 91.553 19.0096 91.0469 19.208C90.5408 19.4064 89.9975 19.5068 89.4512 19.5068C88.9049 19.5068 88.3615 19.4064 87.8555 19.208C87.3493 19.0096 86.8863 18.7156 86.501 18.3398C86.1155 17.9638 85.8156 17.512 85.6279 17.0107C85.4527 16.5426 85.3823 16.0455 85.4209 15.5488C85.3845 15.055 85.455 14.5609 85.6299 14.0957C85.8181 13.5953 86.1186 13.1448 86.5039 12.7695C86.8891 12.3945 87.3517 12.1013 87.8574 11.9033C88.363 11.7054 88.9055 11.6045 89.4512 11.6045ZM89.4531 14.6484C89.1431 14.6484 89.0225 14.7408 88.9648 14.8066C88.8897 14.8925 88.7764 15.1041 88.7764 15.5537C88.7764 16.0099 88.8907 16.221 88.9648 16.3057C89.0213 16.3701 89.1408 16.4629 89.4531 16.4629C89.7601 16.4628 89.8814 16.371 89.9404 16.3037C90.007 16.2278 90.1031 16.0557 90.126 15.7119L90.1309 15.5537L90.126 15.3965C90.1032 15.0549 90.007 14.8834 89.9404 14.8076C89.8811 14.7402 89.7596 14.6485 89.4531 14.6484Z" stroke="white" stroke-opacity="0.01" stroke-width="2.05652"/>
<path d="M93.7734 16.7783C93.7734 15.7651 94.6258 15.181 96.1387 15.098L97.8614 15.0101V14.5243C97.8614 13.9298 97.4173 13.5941 96.5594 13.5941C95.8588 13.5941 95.3733 13.8218 95.234 14.2197H94.0189C94.1472 13.2529 95.1747 12.6328 96.6173 12.6328C98.2117 12.6328 99.1109 13.3353 99.1109 14.5243V18.3701H97.9027V17.5791H97.8034C97.6019 17.8628 97.3188 18.0942 96.9833 18.2494C96.6477 18.4047 96.2715 18.4783 95.8932 18.4628C95.6263 18.4874 95.3565 18.4622 95.1012 18.3888C94.8459 18.3155 94.6108 18.1956 94.4111 18.0369C94.2114 17.8781 94.0514 17.6841 93.9416 17.4674C93.8318 17.2506 93.7745 17.0159 93.7734 16.7783ZM97.8614 16.2973V15.8268L96.3084 15.9147C95.4326 15.9665 95.0354 16.2302 95.0354 16.7264C95.0354 17.233 95.5319 17.5278 96.2146 17.5278C96.4147 17.5457 96.6168 17.5279 96.8088 17.4752C97.0009 17.4226 97.1791 17.3364 97.3327 17.2216C97.4863 17.1068 97.6123 16.9658 97.7031 16.807C97.794 16.6482 97.8478 16.4749 97.8614 16.2973Z" fill="#FAFCFF"/>
<path d="M96.6172 11.6045C97.5469 11.6045 98.4214 11.8066 99.0869 12.3154C99.7902 12.8531 100.139 13.6421 100.139 14.5244V19.3984H96.874V19.377C96.5553 19.4619 96.2245 19.4997 95.8936 19.4902C95.5312 19.5129 95.1664 19.4773 94.8174 19.377C94.4381 19.268 94.081 19.0877 93.7715 18.8418C93.4617 18.5956 93.2045 18.2871 93.0244 17.9316C92.8442 17.5758 92.7469 17.1842 92.7451 16.7832V16.7783C92.7451 16.1927 92.9274 15.671 93.2637 15.248H92.8457L93 14.085C93.2332 12.3273 95.0031 11.6045 96.6172 11.6045Z" stroke="white" stroke-opacity="0.01" stroke-width="2.05652"/>
<path d="M100.766 15.556C100.766 13.7775 101.799 12.6508 103.405 12.6508C103.803 12.6346 104.197 12.7188 104.543 12.8937C104.888 13.0686 105.17 13.3268 105.356 13.6383H105.449V10.5469H106.704V18.3728H105.502V17.4835H105.402C105.202 17.7929 104.911 18.0479 104.559 18.221C104.207 18.3941 103.808 18.4787 103.405 18.4656C101.788 18.4656 100.766 17.3389 100.766 15.556ZM102.062 15.556C102.062 16.7499 102.698 17.4683 103.761 17.4683C104.819 17.4683 105.473 16.7395 105.473 15.5609C105.473 14.3878 104.812 13.6487 103.761 13.6487C102.705 13.6487 102.062 14.372 102.062 15.556H102.062Z" fill="#FAFCFF"/>
<path d="M107.732 9.51855V19.4014H104.474V19.3516C104.128 19.4534 103.767 19.5015 103.405 19.4932C102.346 19.4932 101.394 19.1169 100.717 18.3701C100.049 17.6344 99.7373 16.6392 99.7373 15.5557C99.7374 14.4709 100.054 13.4778 100.723 12.7441C101.391 12.0102 102.324 11.633 103.363 11.623C103.365 11.623 103.366 11.6221 103.367 11.6221C103.38 11.622 103.393 11.6221 103.405 11.6221C103.749 11.6123 104.092 11.6548 104.421 11.748V9.51855H107.732ZM103.762 14.6768C103.481 14.6768 103.352 14.7644 103.283 14.8418C103.203 14.932 103.095 15.1344 103.091 15.5312V15.5557C103.091 15.9785 103.202 16.1875 103.282 16.2773C103.348 16.3513 103.474 16.4404 103.762 16.4404C104.042 16.4403 104.175 16.3512 104.248 16.2695C104.333 16.1746 104.444 15.9657 104.444 15.5605C104.444 15.1622 104.334 14.95 104.245 14.8506C104.168 14.7641 104.032 14.6769 103.762 14.6768Z" stroke="white" stroke-opacity="0.01" stroke-width="2.05652"/>
<path d="M111.889 15.5611C111.849 15.1912 111.897 14.818 112.03 14.4654C112.162 14.1128 112.376 13.7886 112.659 13.5137C112.941 13.2387 113.285 13.019 113.669 12.8686C114.053 12.7183 114.468 12.6406 114.888 12.6406C115.308 12.6406 115.723 12.7183 116.107 12.8686C116.491 13.019 116.835 13.2387 117.118 13.5137C117.4 13.7886 117.614 14.1128 117.747 14.4654C117.879 14.818 117.927 15.1912 117.887 15.5611C117.928 15.9314 117.881 16.3051 117.749 16.6583C117.616 17.0114 117.402 17.3362 117.12 17.6117C116.837 17.8872 116.493 18.1074 116.109 18.2581C115.724 18.4087 115.309 18.4866 114.888 18.4866C114.468 18.4866 114.052 18.4087 113.668 18.2581C113.284 18.1074 112.939 17.8872 112.657 17.6117C112.374 17.3362 112.16 17.0114 112.028 16.6583C111.896 16.3051 111.848 15.9314 111.889 15.5611ZM116.596 15.5611C116.596 14.341 115.977 13.6275 114.89 13.6275C113.799 13.6275 113.186 14.341 113.186 15.5611C113.186 16.791 113.799 17.499 114.89 17.499C115.977 17.499 116.596 16.7861 116.596 15.5611Z" fill="#FAFCFF"/>
<path d="M114.889 11.6123C115.434 11.6124 115.977 11.7132 116.482 11.9111C116.988 12.1091 117.45 12.4023 117.835 12.7773C118.22 13.1527 118.521 13.603 118.709 14.1035C118.884 14.5687 118.954 15.0628 118.918 15.5566C118.957 16.0533 118.887 16.5505 118.712 17.0186C118.524 17.52 118.223 17.9715 117.838 18.3477C117.453 18.7235 116.99 19.0174 116.483 19.2158C115.978 19.414 115.435 19.5146 114.889 19.5146C114.342 19.5146 113.799 19.4141 113.293 19.2158C112.787 19.0174 112.324 18.7235 111.938 18.3477C111.553 17.9715 111.252 17.5199 111.064 17.0186C110.889 16.5505 110.82 16.0532 110.858 15.5566C110.822 15.0628 110.893 14.5687 111.067 14.1035C111.256 13.603 111.556 13.1527 111.941 12.7773C112.326 12.4024 112.788 12.1091 113.294 11.9111C113.8 11.7131 114.343 11.6123 114.889 11.6123ZM114.891 14.6562C114.581 14.6562 114.46 14.7486 114.402 14.8145C114.327 14.9004 114.214 15.112 114.214 15.5615C114.214 16.0177 114.328 16.2289 114.402 16.3135C114.459 16.3779 114.578 16.4707 114.891 16.4707C115.198 16.4706 115.319 16.3788 115.378 16.3115C115.454 16.2248 115.568 16.0122 115.568 15.5615C115.568 15.1139 115.454 14.9021 115.378 14.8154C115.319 14.748 115.197 14.6563 114.891 14.6562Z" stroke="white" stroke-opacity="0.01" stroke-width="2.05652"/>
<path d="M119.578 12.7392H120.786V13.6334H120.88C121.039 13.3122 121.308 13.043 121.648 12.8632C121.988 12.6835 122.383 12.6021 122.778 12.6305C123.087 12.6099 123.398 12.6512 123.687 12.7514C123.976 12.8515 124.236 13.0079 124.447 13.2089C124.658 13.41 124.816 13.6505 124.908 13.9128C125 14.1751 125.024 14.4524 124.979 14.724V18.3678H123.724V15.003C123.724 14.0985 123.28 13.6486 122.352 13.6486C122.142 13.64 121.932 13.6716 121.737 13.7414C121.542 13.8112 121.366 13.9175 121.222 14.0529C121.078 14.1884 120.968 14.3499 120.901 14.5263C120.834 14.7027 120.811 14.8899 120.833 15.075V18.3679H119.578V12.7392Z" fill="#FAFCFF"/>
<path d="M121.861 19.3965H118.55V11.7109H121.781C122.104 11.6217 122.44 11.5865 122.775 11.6025C123.198 11.5827 123.623 11.6407 124.023 11.7793C124.444 11.9251 124.832 12.1568 125.155 12.4639C125.479 12.7714 125.729 13.1487 125.878 13.5723C126.015 13.9641 126.059 14.3798 126.007 14.791V19.3965H122.695V15.0029C122.695 14.8296 122.67 14.7483 122.657 14.7178C122.624 14.7036 122.537 14.6768 122.352 14.6768H122.33L122.31 14.6758C122.23 14.6725 122.151 14.6855 122.083 14.71C122.015 14.7344 121.962 14.7685 121.926 14.8027C121.89 14.8365 121.871 14.8681 121.862 14.8916C121.854 14.9144 121.852 14.9344 121.854 14.9521L121.861 15.0137V19.3965Z" stroke="white" stroke-opacity="0.01" stroke-width="2.05652"/>
<path d="M132.063 11.3438V12.7707H133.441V13.7064H132.063V16.6007C132.063 17.1903 132.337 17.4485 132.962 17.4485C133.122 17.448 133.282 17.4395 133.441 17.4228V18.3481C133.215 18.3838 132.987 18.4028 132.758 18.4049C131.362 18.4049 130.806 17.9703 130.806 16.8851V13.7064H129.797V12.7707H130.806V11.3438H132.063Z" fill="#FAFCFF"/>
<path d="M133.091 10.3154V11.7422H134.469V14.7344H133.091V16.416C133.172 16.4129 133.253 16.4088 133.334 16.4004L134.469 16.2812V19.2266L133.602 19.3633C133.326 19.4069 133.047 19.431 132.768 19.4336H132.758C132.002 19.4336 131.221 19.3259 130.627 18.8633C129.966 18.3482 129.778 17.5959 129.778 16.8848V14.7344H128.769V11.7422H129.778V10.3154H133.091Z" stroke="white" stroke-opacity="0.01" stroke-width="2.05652"/>
<path d="M135.156 10.5469H136.4V13.6487H136.5C136.666 13.3245 136.942 13.0538 137.289 12.8734C137.636 12.6929 138.038 12.6116 138.439 12.6404C138.746 12.6256 139.054 12.671 139.34 12.7736C139.626 12.8762 139.882 13.0332 140.091 13.2337C140.301 13.4341 140.457 13.6729 140.55 13.9331C140.643 14.1932 140.67 14.4683 140.629 14.7388V18.3728H139.372V15.0128C139.372 14.1138 138.899 13.6584 138.013 13.6584C137.797 13.6428 137.58 13.669 137.377 13.7353C137.174 13.8017 136.99 13.9064 136.837 14.0424C136.685 14.1783 136.567 14.3421 136.494 14.5222C136.42 14.7024 136.392 14.8946 136.411 15.0854V18.3728H135.156L135.156 10.5469Z" fill="#FAFCFF"/>
<path d="M137.439 19.4014H134.128V9.51855H137.429V11.7207C137.755 11.6311 138.096 11.595 138.436 11.6113C138.861 11.5967 139.287 11.662 139.688 11.8057C140.102 11.9546 140.484 12.1863 140.803 12.4912C141.121 12.7965 141.369 13.1691 141.519 13.5869C141.657 13.9742 141.704 14.3859 141.657 14.7939V19.4014H138.344V15.0127C138.344 14.7353 138.273 14.7015 138.303 14.7305C138.329 14.7567 138.29 14.6865 138.013 14.6865H137.976L137.938 14.6836C137.854 14.6775 137.771 14.6886 137.696 14.7129C137.622 14.7372 137.563 14.7724 137.521 14.8096C137.48 14.8465 137.458 14.8833 137.446 14.9111C137.435 14.938 137.432 14.9614 137.435 14.9824L137.439 15.0342V19.4014Z" stroke="white" stroke-opacity="0.01" stroke-width="2.05652"/>
<path d="M147.955 16.8582C147.784 17.3727 147.415 17.8176 146.911 18.1153C146.407 18.413 145.801 18.5445 145.199 18.4867C144.78 18.4964 144.364 18.4254 143.979 18.2785C143.594 18.1316 143.25 17.9123 142.97 17.6359C142.691 17.3595 142.483 17.0325 142.36 16.6778C142.238 16.323 142.204 15.9489 142.261 15.5814C142.206 15.2128 142.24 14.8379 142.362 14.482C142.484 14.1262 142.691 13.7977 142.969 13.5189C143.247 13.24 143.59 13.0173 143.974 12.8658C144.357 12.7143 144.773 12.6375 145.194 12.6407C146.963 12.6407 148.031 13.7107 148.031 15.4782V15.8658H143.54V15.9281C143.52 16.1346 143.55 16.3426 143.626 16.5385C143.703 16.7344 143.824 16.9141 143.984 17.0659C144.143 17.2177 144.337 17.3384 144.552 17.4201C144.767 17.5018 144.999 17.5429 145.234 17.5406C145.534 17.5725 145.838 17.5246 146.107 17.4031C146.377 17.2816 146.599 17.0919 146.747 16.8582L147.955 16.8582ZM143.54 15.0443H146.752C146.768 14.8554 146.739 14.6656 146.667 14.4872C146.595 14.3088 146.482 14.1457 146.334 14.0084C146.187 13.8711 146.009 13.7626 145.811 13.6899C145.613 13.6171 145.401 13.5818 145.187 13.5862C144.97 13.5837 144.754 13.6198 144.553 13.6922C144.352 13.7647 144.169 13.872 144.016 14.0079C143.863 14.1438 143.741 14.3055 143.66 14.4835C143.578 14.6615 143.537 14.8522 143.54 15.0443H143.54Z" fill="#FAFCFF"/>
<path d="M145.2 11.6133C146.291 11.6146 147.282 11.9486 148.003 12.6699C148.725 13.3926 149.059 14.3869 149.059 15.4785V15.8301H149.379L149.059 16.7959V16.8945H149.026L148.931 17.1816C148.676 17.9514 148.134 18.5878 147.435 19.001C146.761 19.399 145.969 19.5729 145.186 19.5146C144.648 19.5225 144.112 19.4301 143.612 19.2393C143.101 19.0439 142.633 18.7488 142.247 18.3672C141.861 17.9853 141.565 17.5246 141.389 17.0137C141.229 16.5515 141.175 16.0632 141.227 15.5791C141.177 15.0961 141.231 14.6097 141.39 14.1484C141.565 13.6381 141.858 13.177 142.241 12.793C142.624 12.4094 143.087 12.1101 143.596 11.9092C144.102 11.7093 144.647 11.6102 145.193 11.6133H145.196C145.198 11.6133 145.2 11.6123 145.201 11.6123L145.2 11.6133Z" stroke="white" stroke-opacity="0.01" stroke-width="2.05652"/>
</g>
<rect x="0.5" y="0.5" width="168" height="49" rx="7.5" stroke="#FAFCFF"/>
<defs>
<clipPath id="clip0_1020_2122">
<rect width="169" height="50" rx="8" fill="white"/>
</clipPath>
</defs>
</svg>
