<svg width="169" height="50" viewBox="0 0 169 50" fill="none" xmlns="http://www.w3.org/2000/svg">
<g clip-path="url(#clip0_1020_2103)">
<mask id="path-1-inside-1_1020_2103" fill="white">
<path d="M162.5 1C163.892 1 165.228 1.55312 166.212 2.53769C167.197 3.52226 167.75 4.85761 167.75 6.25V43.75C167.75 45.1424 167.197 46.4777 166.212 47.4623C165.228 48.4469 163.892 49 162.5 49H6.25C4.85761 49 3.52225 48.4469 2.53769 47.4623C1.55312 46.4777 1 45.1424 1 43.75V6.25C1 4.85761 1.55312 3.52226 2.53769 2.53769C3.52225 1.55312 4.85761 1 6.25 1H162.5ZM162.5 0H6.25C4.5924 0 3.00268 0.65848 1.83058 1.83058C0.65848 3.00269 0 4.5924 0 6.25V43.75C0 45.4076 0.65848 46.9973 1.83058 48.1694C3.00268 49.3415 4.5924 50 6.25 50H162.5C164.158 50 165.747 49.3415 166.919 48.1694C168.092 46.9973 168.75 45.4076 168.75 43.75V6.25C168.75 4.5924 168.092 3.00269 166.919 1.83058C165.747 0.65848 164.158 0 162.5 0Z"/>
</mask>
<path d="M162.5 1C163.892 1 165.228 1.55312 166.212 2.53769C167.197 3.52226 167.75 4.85761 167.75 6.25V43.75C167.75 45.1424 167.197 46.4777 166.212 47.4623C165.228 48.4469 163.892 49 162.5 49H6.25C4.85761 49 3.52225 48.4469 2.53769 47.4623C1.55312 46.4777 1 45.1424 1 43.75V6.25C1 4.85761 1.55312 3.52226 2.53769 2.53769C3.52225 1.55312 4.85761 1 6.25 1H162.5ZM162.5 0H6.25C4.5924 0 3.00268 0.65848 1.83058 1.83058C0.65848 3.00269 0 4.5924 0 6.25V43.75C0 45.4076 0.65848 46.9973 1.83058 48.1694C3.00268 49.3415 4.5924 50 6.25 50H162.5C164.158 50 165.747 49.3415 166.919 48.1694C168.092 46.9973 168.75 45.4076 168.75 43.75V6.25C168.75 4.5924 168.092 3.00269 166.919 1.83058C165.747 0.65848 164.158 0 162.5 0Z" fill="#FAFCFF"/>
<path d="M1 43.75H-1H1ZM162.5 0V-2V0ZM6.25 0V-2V0ZM0 6.25H-2H0ZM0 43.75H-2H0ZM168.75 43.75H170.75H168.75ZM162.5 1V3C163.362 3 164.189 3.34241 164.798 3.9519L166.212 2.53769L167.627 1.12348C166.267 -0.236163 164.423 -1 162.5 -1V1ZM166.212 2.53769L164.798 3.9519C165.408 4.56139 165.75 5.38804 165.75 6.25H167.75H169.75C169.75 4.32718 168.986 2.48312 167.627 1.12348L166.212 2.53769ZM167.75 6.25H165.75V43.75H167.75H169.75V6.25H167.75ZM167.75 43.75H165.75C165.75 44.612 165.408 45.4386 164.798 46.0481L166.212 47.4623L167.627 48.8765C168.986 47.5169 169.75 45.6728 169.75 43.75H167.75ZM166.212 47.4623L164.798 46.0481C164.189 46.6576 163.362 47 162.5 47V49V51C164.423 51 166.267 50.2362 167.627 48.8765L166.212 47.4623ZM162.5 49V47H6.25V49V51H162.5V49ZM6.25 49V47C5.38805 47 4.5614 46.6576 3.9519 46.0481L2.53769 47.4623L1.12348 48.8765C2.48311 50.2362 4.32718 51 6.25 51V49ZM2.53769 47.4623L3.9519 46.0481C3.34241 45.4386 3 44.612 3 43.75H1H-1C-1 45.6728 -0.236164 47.5169 1.12348 48.8765L2.53769 47.4623ZM1 43.75H3V6.25H1H-1V43.75H1ZM1 6.25H3C3 5.38805 3.34241 4.5614 3.9519 3.9519L2.53769 2.53769L1.12348 1.12348C-0.236164 2.48311 -1 4.32718 -1 6.25H1ZM2.53769 2.53769L3.9519 3.9519C4.5614 3.34241 5.38805 3 6.25 3V1V-1C4.32718 -1 2.48311 -0.236163 1.12348 1.12348L2.53769 2.53769ZM6.25 1V3H162.5V1V-1H6.25V1ZM162.5 0V-2H6.25V0V2H162.5V0ZM6.25 0V-2C4.06196 -2 1.96354 -1.13081 0.416369 0.416369L1.83058 1.83058L3.2448 3.2448C4.04183 2.44777 5.12283 2 6.25 2V0ZM1.83058 1.83058L0.416369 0.416369C-1.13081 1.96354 -2 4.06196 -2 6.25H0H2C2 5.12283 2.44777 4.04183 3.2448 3.2448L1.83058 1.83058ZM0 6.25H-2V43.75H0H2V6.25H0ZM0 43.75H-2C-2 45.938 -1.13081 48.0365 0.416369 49.5836L1.83058 48.1694L3.2448 46.7552C2.44777 45.9582 2 44.8772 2 43.75H0ZM1.83058 48.1694L0.416369 49.5836C1.96354 51.1308 4.06196 52 6.25 52V50V48C5.12283 48 4.04183 47.5522 3.2448 46.7552L1.83058 48.1694ZM6.25 50V52H162.5V50V48H6.25V50ZM162.5 50V52C164.688 52 166.786 51.1308 168.334 49.5836L166.919 48.1694L165.505 46.7552C164.708 47.5522 163.627 48 162.5 48V50ZM166.919 48.1694L168.334 49.5836C169.881 48.0365 170.75 45.938 170.75 43.75H168.75H166.75C166.75 44.8772 166.302 45.9582 165.505 46.7552L166.919 48.1694ZM168.75 43.75H170.75V6.25H168.75H166.75V43.75H168.75ZM168.75 6.25H170.75C170.75 4.06197 169.881 1.96355 168.334 0.416369L166.919 1.83058L165.505 3.2448C166.302 4.04182 166.75 5.12283 166.75 6.25H168.75ZM166.919 1.83058L168.334 0.416369C166.786 -1.13081 164.688 -2 162.5 -2V0V2C163.627 2 164.708 2.44777 165.505 3.2448L166.919 1.83058Z" fill="#FAFCFF" mask="url(#path-1-inside-1_1020_2103)"/>
<path d="M59.2737 12.8029C59.2942 13.2614 59.2217 13.7192 59.0606 14.1488C58.8995 14.5785 58.6531 14.9711 58.3362 15.3029C57.9811 15.6696 57.5526 15.9571 57.0787 16.1466C56.6048 16.3362 56.0962 16.4235 55.5862 16.4029C55.0733 16.4144 54.5634 16.3204 54.0883 16.1269C53.6131 15.9334 53.1827 15.6445 52.8237 15.2779C52.0953 14.5329 51.6875 13.5324 51.6875 12.4904C51.6875 11.4485 52.0953 10.448 52.8237 9.70295C53.3806 9.1588 54.0858 8.79137 54.8509 8.64681C55.6159 8.50225 56.4067 8.58701 57.1237 8.89045C57.5744 9.07574 57.9765 9.3623 58.2987 9.72795L57.6362 10.3904C57.388 10.0914 57.0734 9.85437 56.7176 9.69814C56.3617 9.54191 55.9743 9.4708 55.5862 9.49045C55.0962 9.49384 54.6145 9.61719 54.1832 9.84971C53.7519 10.0822 53.3842 10.4169 53.1121 10.8244C52.84 11.2318 52.6718 11.6998 52.6223 12.1872C52.5728 12.6747 52.6434 13.1669 52.828 13.6208C53.0127 14.0746 53.3057 14.4764 53.6814 14.7909C54.0571 15.1054 54.5042 15.323 54.9835 15.4249C55.4627 15.5267 55.9597 15.5096 56.4308 15.375C56.902 15.2405 57.333 14.9925 57.6862 14.6529C58.068 14.2343 58.2894 13.6941 58.3112 13.1279H55.5862V12.2279H59.2237C59.2521 12.4184 59.2688 12.6104 59.2737 12.8029Z" fill="#FAFCFF" stroke="#FAFCFF" stroke-width="0.411304" stroke-miterlimit="10"/>
<path d="M64.9984 9.675H61.6234V12.05H64.6984V12.95H61.6234V15.325H64.9984V16.25H60.6484V8.75H64.9984V9.675Z" fill="#FAFCFF" stroke="#FAFCFF" stroke-width="0.411304" stroke-miterlimit="10"/>
<path d="M69.1016 16.25H68.1391V9.675H66.0391V8.75H71.2516V9.675H69.1016V16.25Z" fill="#FAFCFF" stroke="#FAFCFF" stroke-width="0.411304" stroke-miterlimit="10"/>
<path d="M74.9219 16.25V8.75H75.8844V16.25H74.9219Z" fill="#FAFCFF" stroke="#FAFCFF" stroke-width="0.411304" stroke-miterlimit="10"/>
<path d="M80.1562 16.25H79.1938V9.675H77.0938V8.75H82.2438V9.675H80.1562V16.25Z" fill="#FAFCFF" stroke="#FAFCFF" stroke-width="0.411304" stroke-miterlimit="10"/>
<path d="M92.0142 15.2747C91.6531 15.636 91.2244 15.9227 90.7526 16.1182C90.2807 16.3138 89.775 16.4144 89.2642 16.4144C88.7534 16.4144 88.2476 16.3138 87.7758 16.1182C87.3039 15.9227 86.8752 15.636 86.5142 15.2747C85.8075 14.5235 85.4141 13.531 85.4141 12.4997C85.4141 11.4684 85.8075 10.4759 86.5142 9.72469C86.8674 9.35319 87.2947 9.05998 87.7684 8.86404C88.2421 8.66809 88.7517 8.57378 89.2642 8.58719C89.7759 8.5791 90.2839 8.67584 90.7568 8.87147C91.2298 9.06709 91.6577 9.35746 92.0142 9.72469C92.3736 10.0903 92.6561 10.5242 92.8451 11.0009C93.034 11.4775 93.1255 11.9871 93.1142 12.4997C93.1306 13.0129 93.0414 13.524 92.8522 14.0014C92.663 14.4787 92.3777 14.9121 92.0142 15.2747ZM87.2267 14.6497C87.4929 14.9195 87.8102 15.1338 88.16 15.28C88.5097 15.4263 88.8851 15.5016 89.2642 15.5016C89.6433 15.5016 90.0186 15.4263 90.3684 15.28C90.7182 15.1338 91.0354 14.9195 91.3017 14.6497C91.841 14.0636 92.1404 13.2962 92.1404 12.4997C92.1404 11.7032 91.841 10.9358 91.3017 10.3497C91.0354 10.0798 90.7182 9.86558 90.3684 9.71934C90.0186 9.57309 89.6433 9.49779 89.2642 9.49779C88.8851 9.49779 88.5097 9.57309 88.16 9.71934C87.8102 9.86558 87.4929 10.0798 87.2267 10.3497C86.6873 10.9358 86.3879 11.7032 86.3879 12.4997C86.3879 13.2962 86.6873 14.0636 87.2267 14.6497Z" fill="#FAFCFF" stroke="#FAFCFF" stroke-width="0.411304" stroke-miterlimit="10"/>
<path d="M94.4766 16.25V8.75H95.6391L99.2891 14.5875V13.1375V8.75H100.252V16.25H99.2516L95.4391 10.1375V11.575V16.25H94.4766Z" fill="#FAFCFF" stroke="#FAFCFF" stroke-width="0.411304" stroke-miterlimit="10"/>
<path d="M85.1776 27.1859C84.1244 27.1884 83.0956 27.5031 82.2213 28.0903C81.347 28.6775 80.6664 29.5107 80.2656 30.4847C79.8649 31.4587 79.762 32.5296 79.9699 33.562C80.1777 34.5945 80.6871 35.5421 81.4336 36.2851C82.18 37.0281 83.1301 37.533 84.1635 37.736C85.1969 37.9391 86.2673 37.8311 87.2394 37.4258C88.2115 37.0205 89.0415 36.336 89.6246 35.4589C90.2076 34.5819 90.5175 33.5516 90.5151 32.4984C90.5253 31.7959 90.394 31.0984 90.129 30.4476C89.8641 29.7968 89.4709 29.206 88.9729 28.7103C88.4749 28.2146 87.8822 27.8242 87.2302 27.5623C86.5781 27.3005 85.8801 27.1724 85.1776 27.1859ZM85.1776 35.7234C84.532 35.7686 83.8879 35.6185 83.3288 35.2927C82.7697 34.9669 82.3215 34.4804 82.0426 33.8965C81.7636 33.3126 81.6668 32.6583 81.7647 32.0186C81.8625 31.379 82.1505 30.7835 82.5913 30.3097C83.032 29.8359 83.6051 29.5057 84.236 29.3619C84.867 29.2181 85.5265 29.2675 86.129 29.5035C86.7316 29.7396 87.2491 30.1515 87.6144 30.6856C87.9798 31.2197 88.176 31.8513 88.1776 32.4984C88.1977 32.9085 88.1355 33.3184 87.9947 33.704C87.8539 34.0896 87.6373 34.4431 87.3577 34.7437C87.0781 35.0442 86.7412 35.2858 86.3667 35.4541C85.9923 35.6223 85.588 35.7139 85.1776 35.7234ZM73.5276 27.1859C72.4744 27.1884 71.4456 27.5031 70.5713 28.0903C69.697 28.6775 69.0164 29.5107 68.6156 30.4847C68.2149 31.4587 68.112 32.5296 68.3199 33.562C68.5277 34.5945 69.0371 35.5421 69.7836 36.2851C70.53 37.0281 71.4801 37.533 72.5135 37.736C73.5469 37.9391 74.6173 37.8311 75.5894 37.4258C76.5615 37.0205 77.3915 36.336 77.9746 35.4589C78.5576 34.5819 78.8675 33.5516 78.8651 32.4984C78.8753 31.7959 78.744 31.0984 78.479 30.4476C78.2141 29.7968 77.8209 29.206 77.3229 28.7103C76.8249 28.2146 76.2322 27.8242 75.5802 27.5623C74.9282 27.3005 74.2301 27.1724 73.5276 27.1859ZM73.5276 35.7234C72.882 35.7686 72.2379 35.6185 71.6788 35.2927C71.1197 34.9669 70.6715 34.4804 70.3926 33.8965C70.1136 33.3126 70.0168 32.6583 70.1147 32.0186C70.2125 31.379 70.5005 30.7835 70.9413 30.3097C71.382 29.8359 71.9551 29.5057 72.586 29.3619C73.217 29.2181 73.8765 29.2675 74.479 29.5035C75.0816 29.7396 75.5991 30.1515 75.9645 30.6856C76.3298 31.2197 76.526 31.8513 76.5276 32.4984C76.5477 32.9085 76.4855 33.3184 76.3447 33.704C76.2039 34.0896 75.9873 34.4431 75.7077 34.7437C75.4281 35.0442 75.0912 35.2858 74.7167 35.4541C74.3423 35.6223 73.938 35.7139 73.5276 35.7234ZM59.6776 28.8234V31.0734H65.0776C64.9929 32.1332 64.5524 33.1332 63.8276 33.9109C63.2859 34.4628 62.6344 34.8949 61.9152 35.1791C61.196 35.4633 60.4252 35.5934 59.6526 35.5609C58.0613 35.5609 56.5351 34.9288 55.4099 33.8036C54.2847 32.6784 53.6526 31.1522 53.6526 29.5609C53.6526 27.9696 54.2847 26.4435 55.4099 25.3183C56.5351 24.1931 58.0613 23.5609 59.6526 23.5609C61.1781 23.5383 62.6512 24.1176 63.7526 25.1734L65.3401 23.5859C64.595 22.8491 63.7105 22.2683 62.7381 21.8777C61.7658 21.487 60.7253 21.2943 59.6776 21.3109C58.5663 21.2677 57.4578 21.4492 56.4183 21.8447C55.3789 22.2401 54.43 22.8413 53.6285 23.6122C52.827 24.3831 52.1894 25.3079 51.7538 26.3312C51.3183 27.3544 51.0938 28.4551 51.0938 29.5672C51.0938 30.6793 51.3183 31.7799 51.7538 32.8032C52.1894 33.8264 52.827 34.7512 53.6285 35.5222C54.43 36.2931 55.3789 36.8943 56.4183 37.2897C57.4578 37.6852 58.5663 37.8667 59.6776 37.8234C60.7468 37.8661 61.8131 37.6822 62.8062 37.2836C63.7993 36.8851 64.6969 36.281 65.4401 35.5109C66.7527 34.069 67.4521 32.1724 67.3901 30.2234C67.3945 29.7543 67.3569 29.2858 67.2776 28.8234H59.6776ZM116.315 30.5734C115.989 29.6144 115.379 28.7769 114.567 28.172C113.754 27.5671 112.777 27.2232 111.765 27.1859C111.081 27.1846 110.405 27.3235 109.777 27.5941C109.149 27.8647 108.583 28.2612 108.114 28.7591C107.646 29.257 107.284 29.8457 107.052 30.4889C106.82 31.1321 106.722 31.816 106.765 32.4984C106.754 33.6395 107.113 34.7534 107.788 35.6738C108.462 36.5941 109.417 37.2716 110.508 37.6049C111.599 37.9382 112.769 37.9095 113.843 37.5231C114.917 37.1367 115.836 36.4133 116.465 35.4609L114.653 34.2109C114.382 34.6613 113.999 35.0332 113.541 35.2897C113.083 35.5463 112.565 35.6785 112.04 35.6734C111.498 35.6958 110.962 35.5538 110.503 35.266C110.043 34.9782 109.681 34.5581 109.465 34.0609L116.578 31.1234L116.315 30.5734ZM109.065 32.3484C109.04 31.9602 109.092 31.5707 109.219 31.203C109.346 30.8352 109.545 30.4964 109.805 30.2066C110.065 29.9167 110.379 29.6816 110.731 29.5149C111.083 29.3482 111.464 29.2534 111.853 29.2359C112.255 29.2114 112.656 29.3062 113.005 29.5085C113.355 29.7109 113.636 30.0117 113.815 30.3734L109.065 32.3484ZM103.29 37.4984H105.628V21.8734H103.29V37.4984ZM99.4651 28.3734H99.3776C99.0284 27.9758 98.5974 27.6582 98.1142 27.4425C97.6309 27.2267 97.1068 27.1179 96.5776 27.1234C95.2115 27.1897 93.9234 27.779 92.98 28.7692C92.0367 29.7594 91.5105 31.0746 91.5105 32.4422C91.5105 33.8098 92.0367 35.125 92.98 36.1152C93.9234 37.1054 95.2115 37.6947 96.5776 37.7609C97.1075 37.7716 97.6333 37.665 98.1173 37.449C98.6013 37.2329 99.0317 36.9126 99.3776 36.5109H99.4651V37.2734C99.4651 39.3109 98.3776 40.3984 96.6276 40.3984C96.043 40.3856 95.4754 40.1993 94.9969 39.8632C94.5184 39.5272 94.1505 39.0565 93.9401 38.5109L91.9151 39.3484C92.2895 40.2887 92.9404 41.0933 93.7818 41.6557C94.6232 42.2182 95.6156 42.512 96.6276 42.4984C99.3651 42.4984 101.628 40.8859 101.628 36.9609V27.4984H99.4651V28.3734ZM96.7776 35.7234C95.9586 35.6724 95.1898 35.311 94.6279 34.713C94.066 34.115 93.7533 33.3253 93.7533 32.5047C93.7533 31.6841 94.066 30.8944 94.6279 30.2964C95.1898 29.6983 95.9586 29.337 96.7776 29.2859C97.1779 29.3032 97.5706 29.4008 97.9324 29.573C98.2942 29.7451 98.6177 29.9883 98.8836 30.288C99.1495 30.5878 99.3524 30.9379 99.4802 31.3176C99.608 31.6974 99.6581 32.0989 99.6276 32.4984C99.6617 32.8993 99.6141 33.3029 99.4878 33.6849C99.3614 34.0668 99.1589 34.4192 98.8925 34.7207C98.6261 35.0221 98.3013 35.2664 97.9378 35.4388C97.5743 35.6111 97.1796 35.708 96.7776 35.7234ZM127.265 21.8734H121.665V37.4984H124.003V31.5734H127.265C127.931 31.6213 128.6 31.5314 129.23 31.3094C129.86 31.0873 130.437 30.7379 130.926 30.2828C131.415 29.8278 131.805 29.2769 132.072 28.6645C132.338 28.0521 132.476 27.3913 132.476 26.7234C132.476 26.0555 132.338 25.3948 132.072 24.7824C131.805 24.17 131.415 23.6191 130.926 23.1641C130.437 22.709 129.86 22.3596 129.23 22.1375C128.6 21.9155 127.931 21.8256 127.265 21.8734ZM127.265 29.3734H124.003V24.0484H127.315C127.666 24.0484 128.014 24.1176 128.339 24.2521C128.663 24.3865 128.958 24.5835 129.207 24.8319C129.455 25.0803 129.652 25.3752 129.786 25.6998C129.921 26.0243 129.99 26.3722 129.99 26.7234C129.99 27.0747 129.921 27.4226 129.786 27.7471C129.652 28.0717 129.455 28.3666 129.207 28.6149C128.958 28.8633 128.663 29.0604 128.339 29.1948C128.014 29.3292 127.666 29.3984 127.315 29.3984L127.265 29.3734ZM141.69 27.1359C140.839 27.0834 139.991 27.2816 139.251 27.706C138.511 28.1303 137.912 28.7622 137.528 29.5234L139.59 30.3859C139.798 30.0102 140.111 29.7028 140.491 29.501C140.87 29.2991 141.299 29.2114 141.728 29.2484C142.024 29.2138 142.325 29.2386 142.612 29.3213C142.899 29.4041 143.167 29.5432 143.399 29.7306C143.632 29.9179 143.825 30.1497 143.967 30.4125C144.11 30.6752 144.198 30.9636 144.228 31.2609V31.4109C143.476 31.0158 142.639 30.8099 141.79 30.8109C139.565 30.8109 137.29 32.0609 137.29 34.3359C137.312 34.8195 137.431 35.2937 137.64 35.7304C137.849 36.1671 138.143 36.5573 138.506 36.878C138.868 37.1986 139.292 37.4431 139.751 37.5969C140.21 37.7508 140.695 37.8108 141.178 37.7734C141.764 37.8059 142.349 37.6818 142.872 37.4138C143.394 37.1458 143.836 36.7436 144.153 36.2484H144.228V37.4984H146.478V31.4859C146.478 28.7484 144.403 27.1609 141.74 27.1609L141.69 27.1359ZM141.403 35.6984C140.64 35.6984 139.578 35.3109 139.578 34.3734C139.578 33.1234 140.903 32.6984 142.078 32.6984C142.82 32.6801 143.554 32.8614 144.203 33.2234C144.124 33.9023 143.802 34.5297 143.297 34.9893C142.791 35.449 142.136 35.7098 141.453 35.7234L141.403 35.6984ZM154.678 27.4984L152.003 34.2734H151.928L149.153 27.4984H146.653L150.815 36.9734L148.44 42.2359H150.878L157.278 27.4984H154.678ZM133.678 37.4984H136.003V21.8734H133.678V37.4984Z" fill="#FAFCFF"/>
<path d="M13.046 9.42344C12.6341 9.91046 12.4239 10.5365 12.4585 11.1734V38.8234C12.416 39.4614 12.6271 40.0904 13.046 40.5734L13.1335 40.6734L28.621 25.1859V24.8109L13.1335 9.33594L13.046 9.42344Z" fill="url(#paint0_linear_1020_2103)"/>
<path d="M33.75 30.3484L28.625 25.1859V24.8109L33.75 19.6484L33.8625 19.7234L40 23.1984C41.75 24.1859 41.75 25.8109 40 26.8109L33.8875 30.2859L33.75 30.3484Z" fill="url(#paint1_linear_1020_2103)"/>
<path d="M33.8969 30.275L28.6219 25L13.0469 40.575C13.4001 40.8894 13.8522 41.0703 14.3248 41.0863C14.7974 41.1023 15.2607 40.9523 15.6344 40.6625L33.8969 30.275Z" fill="url(#paint2_linear_1020_2103)"/>
<path d="M33.8969 19.7236L15.6344 9.34862C15.2632 9.05476 14.8002 8.90119 14.327 8.91491C13.8537 8.92863 13.4005 9.10875 13.0469 9.42362L28.6219 24.9986L33.8969 19.7236Z" fill="url(#paint3_linear_1020_2103)"/>
<path opacity="0.2" d="M33.7469 30.1641L15.6344 40.4766C15.2743 40.7483 14.8355 40.8953 14.3844 40.8953C13.9333 40.8953 13.4944 40.7483 13.1344 40.4766L13.0469 40.5641L13.1344 40.6641C13.4944 40.9358 13.9333 41.0828 14.3844 41.0828C14.8355 41.0828 15.2743 40.9358 15.6344 40.6641L33.8969 30.2766L33.7469 30.1641Z" fill="#FAFCFF"/>
<path opacity="0.12" d="M13.0572 40.4031C12.6557 39.9073 12.4589 39.2768 12.5072 38.6406V38.8281C12.4646 39.4661 12.6758 40.0951 13.0947 40.5781L13.1822 40.4906L13.0572 40.4031Z" fill="#FAFCFF"/>
<path opacity="0.12" d="M40 26.625L33.75 30.1625L33.8625 30.275L40 26.8C40.3623 26.6468 40.6766 26.3988 40.9097 26.082C41.1429 25.7652 41.2864 25.3914 41.325 25C41.2469 25.3557 41.0862 25.6881 40.8561 25.9703C40.6259 26.2526 40.3327 26.4768 40 26.625Z" fill="#FAFCFF"/>
<path opacity="0.25" d="M15.6359 9.52229L39.9984 23.3723C40.3311 23.5204 40.6244 23.7447 40.8545 24.0269C41.0847 24.3092 41.2453 24.6416 41.3234 24.9973C41.2848 24.6058 41.1414 24.2321 40.9082 23.9153C40.675 23.5985 40.3607 23.3505 39.9984 23.1973L15.6359 9.34729C13.8984 8.34729 12.4609 9.17229 12.4609 11.1723V11.3598C12.4984 9.35979 13.8984 8.53479 15.6359 9.52229Z" fill="#FAFCFF"/>
</g>
<defs>
<linearGradient id="paint0_linear_1020_2103" x1="27.246" y1="10.8859" x2="6.271" y2="31.8609" gradientUnits="userSpaceOnUse">
<stop stop-color="#00A0FF"/>
<stop offset="0.01" stop-color="#00A1FF"/>
<stop offset="0.26" stop-color="#00BEFF"/>
<stop offset="0.51" stop-color="#00D2FF"/>
<stop offset="0.76" stop-color="#00DFFF"/>
<stop offset="1" stop-color="#00E3FF"/>
</linearGradient>
<linearGradient id="paint1_linear_1020_2103" x1="42.2875" y1="24.9984" x2="12.05" y2="24.9984" gradientUnits="userSpaceOnUse">
<stop stop-color="#FFE000"/>
<stop offset="0.41" stop-color="#FFBD00"/>
<stop offset="0.78" stop-color="#FFA500"/>
<stop offset="1" stop-color="#FF9C00"/>
</linearGradient>
<linearGradient id="paint2_linear_1020_2103" x1="31.0344" y1="27.875" x2="2.58437" y2="56.3125" gradientUnits="userSpaceOnUse">
<stop stop-color="#FF3A44"/>
<stop offset="1" stop-color="#C31162"/>
</linearGradient>
<linearGradient id="paint3_linear_1020_2103" x1="9.12188" y1="0.22362" x2="21.8219" y2="12.9236" gradientUnits="userSpaceOnUse">
<stop stop-color="#32A071"/>
<stop offset="0.07" stop-color="#2DA771"/>
<stop offset="0.48" stop-color="#15CF74"/>
<stop offset="0.8" stop-color="#06E775"/>
<stop offset="1" stop-color="#00F076"/>
</linearGradient>
<clipPath id="clip0_1020_2103">
<rect width="168.75" height="50" fill="white"/>
</clipPath>
</defs>
</svg>
