<svg width="124" height="124" viewBox="0 0 124 124" fill="none" xmlns="http://www.w3.org/2000/svg">
<g clip-path="url(#clip0_1020_2157)">
<path d="M11.4914 7.75H7.75V11.4914H11.4914V7.75Z" fill="#FAFCFF"/>
<path d="M15.2328 7.75H11.4914V11.4914H15.2328V7.75Z" fill="#FAFCFF"/>
<path d="M18.9741 7.75H15.2328V11.4914H18.9741V7.75Z" fill="#FAFCFF"/>
<path d="M22.7155 7.75H18.9741V11.4914H22.7155V7.75Z" fill="#FAFCFF"/>
<path d="M26.4569 7.75H22.7155V11.4914H26.4569V7.75Z" fill="#FAFCFF"/>
<path d="M30.1983 7.75H26.4569V11.4914H30.1983V7.75Z" fill="#FAFCFF"/>
<path d="M33.9397 7.75H30.1983V11.4914H33.9397V7.75Z" fill="#FAFCFF"/>
<path d="M45.1638 7.75H41.4224V11.4914H45.1638V7.75Z" fill="#FAFCFF"/>
<path d="M48.9052 7.75H45.1638V11.4914H48.9052V7.75Z" fill="#FAFCFF"/>
<path d="M56.3879 7.75H52.6466V11.4914H56.3879V7.75Z" fill="#FAFCFF"/>
<path d="M60.1293 7.75H56.3879V11.4914H60.1293V7.75Z" fill="#FAFCFF"/>
<path d="M75.0948 7.75H71.3534V11.4914H75.0948V7.75Z" fill="#FAFCFF"/>
<path d="M78.8362 7.75H75.0948V11.4914H78.8362V7.75Z" fill="#FAFCFF"/>
<path d="M82.5776 7.75H78.8362V11.4914H82.5776V7.75Z" fill="#FAFCFF"/>
<path d="M86.319 7.75H82.5776V11.4914H86.319V7.75Z" fill="#FAFCFF"/>
<path d="M93.8017 7.75H90.0603V11.4914H93.8017V7.75Z" fill="#FAFCFF"/>
<path d="M97.5431 7.75H93.8017V11.4914H97.5431V7.75Z" fill="#FAFCFF"/>
<path d="M101.284 7.75H97.5431V11.4914H101.284V7.75Z" fill="#FAFCFF"/>
<path d="M105.026 7.75H101.284V11.4914H105.026V7.75Z" fill="#FAFCFF"/>
<path d="M108.767 7.75H105.026V11.4914H108.767V7.75Z" fill="#FAFCFF"/>
<path d="M112.509 7.75H108.767V11.4914H112.509V7.75Z" fill="#FAFCFF"/>
<path d="M116.25 7.75H112.509V11.4914H116.25V7.75Z" fill="#FAFCFF"/>
<path d="M11.4914 11.4914H7.75V15.2328H11.4914V11.4914Z" fill="#FAFCFF"/>
<path d="M33.9397 11.4914H30.1983V15.2328H33.9397V11.4914Z" fill="#FAFCFF"/>
<path d="M41.4224 11.4914H37.681V15.2328H41.4224V11.4914Z" fill="#FAFCFF"/>
<path d="M45.1638 11.4914H41.4224V15.2328H45.1638V11.4914Z" fill="#FAFCFF"/>
<path d="M63.8707 11.4914H60.1293V15.2328H63.8707V11.4914Z" fill="#FAFCFF"/>
<path d="M67.6121 11.4914H63.8707V15.2328H67.6121V11.4914Z" fill="#FAFCFF"/>
<path d="M71.3534 11.4914H67.6121V15.2328H71.3534V11.4914Z" fill="#FAFCFF"/>
<path d="M75.0948 11.4914H71.3534V15.2328H75.0948V11.4914Z" fill="#FAFCFF"/>
<path d="M78.8362 11.4914H75.0948V15.2328H78.8362V11.4914Z" fill="#FAFCFF"/>
<path d="M93.8017 11.4914H90.0603V15.2328H93.8017V11.4914Z" fill="#FAFCFF"/>
<path d="M116.25 11.4914H112.509V15.2328H116.25V11.4914Z" fill="#FAFCFF"/>
<path d="M11.4914 15.2328H7.75V18.9741H11.4914V15.2328Z" fill="#FAFCFF"/>
<path d="M18.9741 15.2328H15.2328V18.9741H18.9741V15.2328Z" fill="#FAFCFF"/>
<path d="M22.7155 15.2328H18.9741V18.9741H22.7155V15.2328Z" fill="#FAFCFF"/>
<path d="M26.4569 15.2328H22.7155V18.9741H26.4569V15.2328Z" fill="#FAFCFF"/>
<path d="M33.9397 15.2328H30.1983V18.9741H33.9397V15.2328Z" fill="#FAFCFF"/>
<path d="M48.9052 15.2328H45.1638V18.9741H48.9052V15.2328Z" fill="#FAFCFF"/>
<path d="M52.6466 15.2328H48.9052V18.9741H52.6466V15.2328Z" fill="#FAFCFF"/>
<path d="M75.0948 15.2328H71.3534V18.9741H75.0948V15.2328Z" fill="#FAFCFF"/>
<path d="M86.319 15.2328H82.5776V18.9741H86.319V15.2328Z" fill="#FAFCFF"/>
<path d="M93.8017 15.2328H90.0603V18.9741H93.8017V15.2328Z" fill="#FAFCFF"/>
<path d="M101.284 15.2328H97.5431V18.9741H101.284V15.2328Z" fill="#FAFCFF"/>
<path d="M105.026 15.2328H101.284V18.9741H105.026V15.2328Z" fill="#FAFCFF"/>
<path d="M108.767 15.2328H105.026V18.9741H108.767V15.2328Z" fill="#FAFCFF"/>
<path d="M116.25 15.2328H112.509V18.9741H116.25V15.2328Z" fill="#FAFCFF"/>
<path d="M11.4914 18.9741H7.75V22.7155H11.4914V18.9741Z" fill="#FAFCFF"/>
<path d="M18.9741 18.9741H15.2328V22.7155H18.9741V18.9741Z" fill="#FAFCFF"/>
<path d="M22.7155 18.9741H18.9741V22.7155H22.7155V18.9741Z" fill="#FAFCFF"/>
<path d="M26.4569 18.9741H22.7155V22.7155H26.4569V18.9741Z" fill="#FAFCFF"/>
<path d="M33.9397 18.9741H30.1983V22.7155H33.9397V18.9741Z" fill="#FAFCFF"/>
<path d="M45.1638 18.9741H41.4224V22.7155H45.1638V18.9741Z" fill="#FAFCFF"/>
<path d="M48.9052 18.9741H45.1638V22.7155H48.9052V18.9741Z" fill="#FAFCFF"/>
<path d="M63.8707 18.9741H60.1293V22.7155H63.8707V18.9741Z" fill="#FAFCFF"/>
<path d="M67.6121 18.9741H63.8707V22.7155H67.6121V18.9741Z" fill="#FAFCFF"/>
<path d="M75.0948 18.9741H71.3534V22.7155H75.0948V18.9741Z" fill="#FAFCFF"/>
<path d="M93.8017 18.9741H90.0603V22.7155H93.8017V18.9741Z" fill="#FAFCFF"/>
<path d="M101.284 18.9741H97.5431V22.7155H101.284V18.9741Z" fill="#FAFCFF"/>
<path d="M105.026 18.9741H101.284V22.7155H105.026V18.9741Z" fill="#FAFCFF"/>
<path d="M108.767 18.9741H105.026V22.7155H108.767V18.9741Z" fill="#FAFCFF"/>
<path d="M116.25 18.9741H112.509V22.7155H116.25V18.9741Z" fill="#FAFCFF"/>
<path d="M11.4914 22.7155H7.75V26.4569H11.4914V22.7155Z" fill="#FAFCFF"/>
<path d="M18.9741 22.7155H15.2328V26.4569H18.9741V22.7155Z" fill="#FAFCFF"/>
<path d="M22.7155 22.7155H18.9741V26.4569H22.7155V22.7155Z" fill="#FAFCFF"/>
<path d="M26.4569 22.7155H22.7155V26.4569H26.4569V22.7155Z" fill="#FAFCFF"/>
<path d="M33.9397 22.7155H30.1983V26.4569H33.9397V22.7155Z" fill="#FAFCFF"/>
<path d="M45.1638 22.7155H41.4224V26.4569H45.1638V22.7155Z" fill="#FAFCFF"/>
<path d="M52.6466 22.7155H48.9052V26.4569H52.6466V22.7155Z" fill="#FAFCFF"/>
<path d="M56.3879 22.7155H52.6466V26.4569H56.3879V22.7155Z" fill="#FAFCFF"/>
<path d="M63.8707 22.7155H60.1293V26.4569H63.8707V22.7155Z" fill="#FAFCFF"/>
<path d="M67.6121 22.7155H63.8707V26.4569H67.6121V22.7155Z" fill="#FAFCFF"/>
<path d="M82.5776 22.7155H78.8362V26.4569H82.5776V22.7155Z" fill="#FAFCFF"/>
<path d="M86.319 22.7155H82.5776V26.4569H86.319V22.7155Z" fill="#FAFCFF"/>
<path d="M93.8017 22.7155H90.0603V26.4569H93.8017V22.7155Z" fill="#FAFCFF"/>
<path d="M101.284 22.7155H97.5431V26.4569H101.284V22.7155Z" fill="#FAFCFF"/>
<path d="M105.026 22.7155H101.284V26.4569H105.026V22.7155Z" fill="#FAFCFF"/>
<path d="M108.767 22.7155H105.026V26.4569H108.767V22.7155Z" fill="#FAFCFF"/>
<path d="M116.25 22.7155H112.509V26.4569H116.25V22.7155Z" fill="#FAFCFF"/>
<path d="M11.4914 26.4569H7.75V30.1983H11.4914V26.4569Z" fill="#FAFCFF"/>
<path d="M33.9397 26.4569H30.1983V30.1983H33.9397V26.4569Z" fill="#FAFCFF"/>
<path d="M45.1638 26.4569H41.4224V30.1983H45.1638V26.4569Z" fill="#FAFCFF"/>
<path d="M48.9052 26.4569H45.1638V30.1983H48.9052V26.4569Z" fill="#FAFCFF"/>
<path d="M56.3879 26.4569H52.6466V30.1983H56.3879V26.4569Z" fill="#FAFCFF"/>
<path d="M60.1293 26.4569H56.3879V30.1983H60.1293V26.4569Z" fill="#FAFCFF"/>
<path d="M67.6121 26.4569H63.8707V30.1983H67.6121V26.4569Z" fill="#FAFCFF"/>
<path d="M71.3534 26.4569H67.6121V30.1983H71.3534V26.4569Z" fill="#FAFCFF"/>
<path d="M75.0948 26.4569H71.3534V30.1983H75.0948V26.4569Z" fill="#FAFCFF"/>
<path d="M78.8362 26.4569H75.0948V30.1983H78.8362V26.4569Z" fill="#FAFCFF"/>
<path d="M82.5776 26.4569H78.8362V30.1983H82.5776V26.4569Z" fill="#FAFCFF"/>
<path d="M86.319 26.4569H82.5776V30.1983H86.319V26.4569Z" fill="#FAFCFF"/>
<path d="M93.8017 26.4569H90.0603V30.1983H93.8017V26.4569Z" fill="#FAFCFF"/>
<path d="M116.25 26.4569H112.509V30.1983H116.25V26.4569Z" fill="#FAFCFF"/>
<path d="M11.4914 30.1983H7.75V33.9397H11.4914V30.1983Z" fill="#FAFCFF"/>
<path d="M15.2328 30.1983H11.4914V33.9397H15.2328V30.1983Z" fill="#FAFCFF"/>
<path d="M18.9741 30.1983H15.2328V33.9397H18.9741V30.1983Z" fill="#FAFCFF"/>
<path d="M22.7155 30.1983H18.9741V33.9397H22.7155V30.1983Z" fill="#FAFCFF"/>
<path d="M26.4569 30.1983H22.7155V33.9397H26.4569V30.1983Z" fill="#FAFCFF"/>
<path d="M30.1983 30.1983H26.4569V33.9397H30.1983V30.1983Z" fill="#FAFCFF"/>
<path d="M33.9397 30.1983H30.1983V33.9397H33.9397V30.1983Z" fill="#FAFCFF"/>
<path d="M41.4224 30.1983H37.681V33.9397H41.4224V30.1983Z" fill="#FAFCFF"/>
<path d="M48.9052 30.1983H45.1638V33.9397H48.9052V30.1983Z" fill="#FAFCFF"/>
<path d="M56.3879 30.1983H52.6466V33.9397H56.3879V30.1983Z" fill="#FAFCFF"/>
<path d="M63.8707 30.1983H60.1293V33.9397H63.8707V30.1983Z" fill="#FAFCFF"/>
<path d="M71.3534 30.1983H67.6121V33.9397H71.3534V30.1983Z" fill="#FAFCFF"/>
<path d="M78.8362 30.1983H75.0948V33.9397H78.8362V30.1983Z" fill="#FAFCFF"/>
<path d="M86.319 30.1983H82.5776V33.9397H86.319V30.1983Z" fill="#FAFCFF"/>
<path d="M93.8017 30.1983H90.0603V33.9397H93.8017V30.1983Z" fill="#FAFCFF"/>
<path d="M97.5431 30.1983H93.8017V33.9397H97.5431V30.1983Z" fill="#FAFCFF"/>
<path d="M101.284 30.1983H97.5431V33.9397H101.284V30.1983Z" fill="#FAFCFF"/>
<path d="M105.026 30.1983H101.284V33.9397H105.026V30.1983Z" fill="#FAFCFF"/>
<path d="M108.767 30.1983H105.026V33.9397H108.767V30.1983Z" fill="#FAFCFF"/>
<path d="M112.509 30.1983H108.767V33.9397H112.509V30.1983Z" fill="#FAFCFF"/>
<path d="M116.25 30.1983H112.509V33.9397H116.25V30.1983Z" fill="#FAFCFF"/>
<path d="M41.4224 33.9397H37.681V37.681H41.4224V33.9397Z" fill="#FAFCFF"/>
<path d="M48.9052 33.9397H45.1638V37.681H48.9052V33.9397Z" fill="#FAFCFF"/>
<path d="M56.3879 33.9397H52.6466V37.681H56.3879V33.9397Z" fill="#FAFCFF"/>
<path d="M60.1293 33.9397H56.3879V37.681H60.1293V33.9397Z" fill="#FAFCFF"/>
<path d="M67.6121 33.9397H63.8707V37.681H67.6121V33.9397Z" fill="#FAFCFF"/>
<path d="M78.8362 33.9397H75.0948V37.681H78.8362V33.9397Z" fill="#FAFCFF"/>
<path d="M86.319 33.9397H82.5776V37.681H86.319V33.9397Z" fill="#FAFCFF"/>
<path d="M11.4914 37.681H7.75V41.4224H11.4914V37.681Z" fill="#FAFCFF"/>
<path d="M15.2328 37.681H11.4914V41.4224H15.2328V37.681Z" fill="#FAFCFF"/>
<path d="M33.9397 37.681H30.1983V41.4224H33.9397V37.681Z" fill="#FAFCFF"/>
<path d="M41.4224 37.681H37.681V41.4224H41.4224V37.681Z" fill="#FAFCFF"/>
<path d="M48.9052 37.681H45.1638V41.4224H48.9052V37.681Z" fill="#FAFCFF"/>
<path d="M52.6466 37.681H48.9052V41.4224H52.6466V37.681Z" fill="#FAFCFF"/>
<path d="M63.8707 37.681H60.1293V41.4224H63.8707V37.681Z" fill="#FAFCFF"/>
<path d="M71.3534 37.681H67.6121V41.4224H71.3534V37.681Z" fill="#FAFCFF"/>
<path d="M75.0948 37.681H71.3534V41.4224H75.0948V37.681Z" fill="#FAFCFF"/>
<path d="M78.8362 37.681H75.0948V41.4224H78.8362V37.681Z" fill="#FAFCFF"/>
<path d="M82.5776 37.681H78.8362V41.4224H82.5776V37.681Z" fill="#FAFCFF"/>
<path d="M90.0603 37.681H86.319V41.4224H90.0603V37.681Z" fill="#FAFCFF"/>
<path d="M93.8017 37.681H90.0603V41.4224H93.8017V37.681Z" fill="#FAFCFF"/>
<path d="M112.509 37.681H108.767V41.4224H112.509V37.681Z" fill="#FAFCFF"/>
<path d="M11.4914 41.4224H7.75V45.1638H11.4914V41.4224Z" fill="#FAFCFF"/>
<path d="M26.4569 41.4224H22.7155V45.1638H26.4569V41.4224Z" fill="#FAFCFF"/>
<path d="M37.681 41.4224H33.9397V45.1638H37.681V41.4224Z" fill="#FAFCFF"/>
<path d="M48.9052 41.4224H45.1638V45.1638H48.9052V41.4224Z" fill="#FAFCFF"/>
<path d="M56.3879 41.4224H52.6466V45.1638H56.3879V41.4224Z" fill="#FAFCFF"/>
<path d="M60.1293 41.4224H56.3879V45.1638H60.1293V41.4224Z" fill="#FAFCFF"/>
<path d="M67.6121 41.4224H63.8707V45.1638H67.6121V41.4224Z" fill="#FAFCFF"/>
<path d="M75.0948 41.4224H71.3534V45.1638H75.0948V41.4224Z" fill="#FAFCFF"/>
<path d="M78.8362 41.4224H75.0948V45.1638H78.8362V41.4224Z" fill="#FAFCFF"/>
<path d="M86.319 41.4224H82.5776V45.1638H86.319V41.4224Z" fill="#FAFCFF"/>
<path d="M90.0603 41.4224H86.319V45.1638H90.0603V41.4224Z" fill="#FAFCFF"/>
<path d="M93.8017 41.4224H90.0603V45.1638H93.8017V41.4224Z" fill="#FAFCFF"/>
<path d="M105.026 41.4224H101.284V45.1638H105.026V41.4224Z" fill="#FAFCFF"/>
<path d="M112.509 41.4224H108.767V45.1638H112.509V41.4224Z" fill="#FAFCFF"/>
<path d="M116.25 41.4224H112.509V45.1638H116.25V41.4224Z" fill="#FAFCFF"/>
<path d="M15.2328 45.1638H11.4914V48.9052H15.2328V45.1638Z" fill="#FAFCFF"/>
<path d="M18.9741 45.1638H15.2328V48.9052H18.9741V45.1638Z" fill="#FAFCFF"/>
<path d="M22.7155 45.1638H18.9741V48.9052H22.7155V45.1638Z" fill="#FAFCFF"/>
<path d="M33.9397 45.1638H30.1983V48.9052H33.9397V45.1638Z" fill="#FAFCFF"/>
<path d="M41.4224 45.1638H37.681V48.9052H41.4224V45.1638Z" fill="#FAFCFF"/>
<path d="M45.1638 45.1638H41.4224V48.9052H45.1638V45.1638Z" fill="#FAFCFF"/>
<path d="M60.1293 45.1638H56.3879V48.9052H60.1293V45.1638Z" fill="#FAFCFF"/>
<path d="M71.3534 45.1638H67.6121V48.9052H71.3534V45.1638Z" fill="#FAFCFF"/>
<path d="M78.8362 45.1638H75.0948V48.9052H78.8362V45.1638Z" fill="#FAFCFF"/>
<path d="M86.319 45.1638H82.5776V48.9052H86.319V45.1638Z" fill="#FAFCFF"/>
<path d="M93.8017 45.1638H90.0603V48.9052H93.8017V45.1638Z" fill="#FAFCFF"/>
<path d="M97.5431 45.1638H93.8017V48.9052H97.5431V45.1638Z" fill="#FAFCFF"/>
<path d="M101.284 45.1638H97.5431V48.9052H101.284V45.1638Z" fill="#FAFCFF"/>
<path d="M105.026 45.1638H101.284V48.9052H105.026V45.1638Z" fill="#FAFCFF"/>
<path d="M112.509 45.1638H108.767V48.9052H112.509V45.1638Z" fill="#FAFCFF"/>
<path d="M11.4914 48.9052H7.75V52.6466H11.4914V48.9052Z" fill="#FAFCFF"/>
<path d="M22.7155 48.9052H18.9741V52.6466H22.7155V48.9052Z" fill="#FAFCFF"/>
<path d="M41.4224 48.9052H37.681V52.6466H41.4224V48.9052Z" fill="#FAFCFF"/>
<path d="M45.1638 48.9052H41.4224V52.6466H45.1638V48.9052Z" fill="#FAFCFF"/>
<path d="M48.9052 48.9052H45.1638V52.6466H48.9052V48.9052Z" fill="#FAFCFF"/>
<path d="M52.6466 48.9052H48.9052V52.6466H52.6466V48.9052Z" fill="#FAFCFF"/>
<path d="M56.3879 48.9052H52.6466V52.6466H56.3879V48.9052Z" fill="#FAFCFF"/>
<path d="M63.8707 48.9052H60.1293V52.6466H63.8707V48.9052Z" fill="#FAFCFF"/>
<path d="M75.0948 48.9052H71.3534V52.6466H75.0948V48.9052Z" fill="#FAFCFF"/>
<path d="M82.5776 48.9052H78.8362V52.6466H82.5776V48.9052Z" fill="#FAFCFF"/>
<path d="M93.8017 48.9052H90.0603V52.6466H93.8017V48.9052Z" fill="#FAFCFF"/>
<path d="M97.5431 48.9052H93.8017V52.6466H97.5431V48.9052Z" fill="#FAFCFF"/>
<path d="M101.284 48.9052H97.5431V52.6466H101.284V48.9052Z" fill="#FAFCFF"/>
<path d="M105.026 48.9052H101.284V52.6466H105.026V48.9052Z" fill="#FAFCFF"/>
<path d="M108.767 48.9052H105.026V52.6466H108.767V48.9052Z" fill="#FAFCFF"/>
<path d="M116.25 48.9052H112.509V52.6466H116.25V48.9052Z" fill="#FAFCFF"/>
<path d="M11.4914 52.6466H7.75V56.3879H11.4914V52.6466Z" fill="#FAFCFF"/>
<path d="M15.2328 52.6466H11.4914V56.3879H15.2328V52.6466Z" fill="#FAFCFF"/>
<path d="M30.1983 52.6466H26.4569V56.3879H30.1983V52.6466Z" fill="#FAFCFF"/>
<path d="M33.9397 52.6466H30.1983V56.3879H33.9397V52.6466Z" fill="#FAFCFF"/>
<path d="M37.681 52.6466H33.9397V56.3879H37.681V52.6466Z" fill="#FAFCFF"/>
<path d="M41.4224 52.6466H37.681V56.3879H41.4224V52.6466Z" fill="#FAFCFF"/>
<path d="M52.6466 52.6466H48.9052V56.3879H52.6466V52.6466Z" fill="#FAFCFF"/>
<path d="M67.6121 52.6466H63.8707V56.3879H67.6121V52.6466Z" fill="#FAFCFF"/>
<path d="M71.3534 52.6466H67.6121V56.3879H71.3534V52.6466Z" fill="#FAFCFF"/>
<path d="M75.0948 52.6466H71.3534V56.3879H75.0948V52.6466Z" fill="#FAFCFF"/>
<path d="M78.8362 52.6466H75.0948V56.3879H78.8362V52.6466Z" fill="#FAFCFF"/>
<path d="M82.5776 52.6466H78.8362V56.3879H82.5776V52.6466Z" fill="#FAFCFF"/>
<path d="M86.319 52.6466H82.5776V56.3879H86.319V52.6466Z" fill="#FAFCFF"/>
<path d="M105.026 52.6466H101.284V56.3879H105.026V52.6466Z" fill="#FAFCFF"/>
<path d="M15.2328 56.3879H11.4914V60.1293H15.2328V56.3879Z" fill="#FAFCFF"/>
<path d="M22.7155 56.3879H18.9741V60.1293H22.7155V56.3879Z" fill="#FAFCFF"/>
<path d="M26.4569 56.3879H22.7155V60.1293H26.4569V56.3879Z" fill="#FAFCFF"/>
<path d="M45.1638 56.3879H41.4224V60.1293H45.1638V56.3879Z" fill="#FAFCFF"/>
<path d="M60.1293 56.3879H56.3879V60.1293H60.1293V56.3879Z" fill="#FAFCFF"/>
<path d="M63.8707 56.3879H60.1293V60.1293H63.8707V56.3879Z" fill="#FAFCFF"/>
<path d="M75.0948 56.3879H71.3534V60.1293H75.0948V56.3879Z" fill="#FAFCFF"/>
<path d="M93.8017 56.3879H90.0603V60.1293H93.8017V56.3879Z" fill="#FAFCFF"/>
<path d="M97.5431 56.3879H93.8017V60.1293H97.5431V56.3879Z" fill="#FAFCFF"/>
<path d="M105.026 56.3879H101.284V60.1293H105.026V56.3879Z" fill="#FAFCFF"/>
<path d="M15.2328 60.1293H11.4914V63.8707H15.2328V60.1293Z" fill="#FAFCFF"/>
<path d="M18.9741 60.1293H15.2328V63.8707H18.9741V60.1293Z" fill="#FAFCFF"/>
<path d="M22.7155 60.1293H18.9741V63.8707H22.7155V60.1293Z" fill="#FAFCFF"/>
<path d="M33.9397 60.1293H30.1983V63.8707H33.9397V60.1293Z" fill="#FAFCFF"/>
<path d="M52.6466 60.1293H48.9052V63.8707H52.6466V60.1293Z" fill="#FAFCFF"/>
<path d="M63.8707 60.1293H60.1293V63.8707H63.8707V60.1293Z" fill="#FAFCFF"/>
<path d="M67.6121 60.1293H63.8707V63.8707H67.6121V60.1293Z" fill="#FAFCFF"/>
<path d="M71.3534 60.1293H67.6121V63.8707H71.3534V60.1293Z" fill="#FAFCFF"/>
<path d="M78.8362 60.1293H75.0948V63.8707H78.8362V60.1293Z" fill="#FAFCFF"/>
<path d="M86.319 60.1293H82.5776V63.8707H86.319V60.1293Z" fill="#FAFCFF"/>
<path d="M93.8017 60.1293H90.0603V63.8707H93.8017V60.1293Z" fill="#FAFCFF"/>
<path d="M112.509 60.1293H108.767V63.8707H112.509V60.1293Z" fill="#FAFCFF"/>
<path d="M11.4914 63.8707H7.75V67.6121H11.4914V63.8707Z" fill="#FAFCFF"/>
<path d="M37.681 63.8707H33.9397V67.6121H37.681V63.8707Z" fill="#FAFCFF"/>
<path d="M56.3879 63.8707H52.6466V67.6121H56.3879V63.8707Z" fill="#FAFCFF"/>
<path d="M60.1293 63.8707H56.3879V67.6121H60.1293V63.8707Z" fill="#FAFCFF"/>
<path d="M78.8362 63.8707H75.0948V67.6121H78.8362V63.8707Z" fill="#FAFCFF"/>
<path d="M86.319 63.8707H82.5776V67.6121H86.319V63.8707Z" fill="#FAFCFF"/>
<path d="M90.0603 63.8707H86.319V67.6121H90.0603V63.8707Z" fill="#FAFCFF"/>
<path d="M93.8017 63.8707H90.0603V67.6121H93.8017V63.8707Z" fill="#FAFCFF"/>
<path d="M112.509 63.8707H108.767V67.6121H112.509V63.8707Z" fill="#FAFCFF"/>
<path d="M11.4914 67.6121H7.75V71.3534H11.4914V67.6121Z" fill="#FAFCFF"/>
<path d="M26.4569 67.6121H22.7155V71.3534H26.4569V67.6121Z" fill="#FAFCFF"/>
<path d="M30.1983 67.6121H26.4569V71.3534H30.1983V67.6121Z" fill="#FAFCFF"/>
<path d="M33.9397 67.6121H30.1983V71.3534H33.9397V67.6121Z" fill="#FAFCFF"/>
<path d="M37.681 67.6121H33.9397V71.3534H37.681V67.6121Z" fill="#FAFCFF"/>
<path d="M41.4224 67.6121H37.681V71.3534H41.4224V67.6121Z" fill="#FAFCFF"/>
<path d="M48.9052 67.6121H45.1638V71.3534H48.9052V67.6121Z" fill="#FAFCFF"/>
<path d="M56.3879 67.6121H52.6466V71.3534H56.3879V67.6121Z" fill="#FAFCFF"/>
<path d="M60.1293 67.6121H56.3879V71.3534H60.1293V67.6121Z" fill="#FAFCFF"/>
<path d="M67.6121 67.6121H63.8707V71.3534H67.6121V67.6121Z" fill="#FAFCFF"/>
<path d="M71.3534 67.6121H67.6121V71.3534H71.3534V67.6121Z" fill="#FAFCFF"/>
<path d="M86.319 67.6121H82.5776V71.3534H86.319V67.6121Z" fill="#FAFCFF"/>
<path d="M93.8017 67.6121H90.0603V71.3534H93.8017V67.6121Z" fill="#FAFCFF"/>
<path d="M101.284 67.6121H97.5431V71.3534H101.284V67.6121Z" fill="#FAFCFF"/>
<path d="M105.026 67.6121H101.284V71.3534H105.026V67.6121Z" fill="#FAFCFF"/>
<path d="M11.4914 71.3534H7.75V75.0948H11.4914V71.3534Z" fill="#FAFCFF"/>
<path d="M22.7155 71.3534H18.9741V75.0948H22.7155V71.3534Z" fill="#FAFCFF"/>
<path d="M48.9052 71.3534H45.1638V75.0948H48.9052V71.3534Z" fill="#FAFCFF"/>
<path d="M60.1293 71.3534H56.3879V75.0948H60.1293V71.3534Z" fill="#FAFCFF"/>
<path d="M63.8707 71.3534H60.1293V75.0948H63.8707V71.3534Z" fill="#FAFCFF"/>
<path d="M67.6121 71.3534H63.8707V75.0948H67.6121V71.3534Z" fill="#FAFCFF"/>
<path d="M78.8362 71.3534H75.0948V75.0948H78.8362V71.3534Z" fill="#FAFCFF"/>
<path d="M86.319 71.3534H82.5776V75.0948H86.319V71.3534Z" fill="#FAFCFF"/>
<path d="M101.284 71.3534H97.5431V75.0948H101.284V71.3534Z" fill="#FAFCFF"/>
<path d="M108.767 71.3534H105.026V75.0948H108.767V71.3534Z" fill="#FAFCFF"/>
<path d="M116.25 71.3534H112.509V75.0948H116.25V71.3534Z" fill="#FAFCFF"/>
<path d="M11.4914 75.0948H7.75V78.8362H11.4914V75.0948Z" fill="#FAFCFF"/>
<path d="M30.1983 75.0948H26.4569V78.8362H30.1983V75.0948Z" fill="#FAFCFF"/>
<path d="M33.9397 75.0948H30.1983V78.8362H33.9397V75.0948Z" fill="#FAFCFF"/>
<path d="M41.4224 75.0948H37.681V78.8362H41.4224V75.0948Z" fill="#FAFCFF"/>
<path d="M48.9052 75.0948H45.1638V78.8362H48.9052V75.0948Z" fill="#FAFCFF"/>
<path d="M52.6466 75.0948H48.9052V78.8362H52.6466V75.0948Z" fill="#FAFCFF"/>
<path d="M67.6121 75.0948H63.8707V78.8362H67.6121V75.0948Z" fill="#FAFCFF"/>
<path d="M75.0948 75.0948H71.3534V78.8362H75.0948V75.0948Z" fill="#FAFCFF"/>
<path d="M78.8362 75.0948H75.0948V78.8362H78.8362V75.0948Z" fill="#FAFCFF"/>
<path d="M82.5776 75.0948H78.8362V78.8362H82.5776V75.0948Z" fill="#FAFCFF"/>
<path d="M93.8017 75.0948H90.0603V78.8362H93.8017V75.0948Z" fill="#FAFCFF"/>
<path d="M101.284 75.0948H97.5431V78.8362H101.284V75.0948Z" fill="#FAFCFF"/>
<path d="M108.767 75.0948H105.026V78.8362H108.767V75.0948Z" fill="#FAFCFF"/>
<path d="M112.509 75.0948H108.767V78.8362H112.509V75.0948Z" fill="#FAFCFF"/>
<path d="M11.4914 78.8362H7.75V82.5776H11.4914V78.8362Z" fill="#FAFCFF"/>
<path d="M15.2328 78.8362H11.4914V82.5776H15.2328V78.8362Z" fill="#FAFCFF"/>
<path d="M18.9741 78.8362H15.2328V82.5776H18.9741V78.8362Z" fill="#FAFCFF"/>
<path d="M22.7155 78.8362H18.9741V82.5776H22.7155V78.8362Z" fill="#FAFCFF"/>
<path d="M26.4569 78.8362H22.7155V82.5776H26.4569V78.8362Z" fill="#FAFCFF"/>
<path d="M37.681 78.8362H33.9397V82.5776H37.681V78.8362Z" fill="#FAFCFF"/>
<path d="M56.3879 78.8362H52.6466V82.5776H56.3879V78.8362Z" fill="#FAFCFF"/>
<path d="M82.5776 78.8362H78.8362V82.5776H82.5776V78.8362Z" fill="#FAFCFF"/>
<path d="M86.319 78.8362H82.5776V82.5776H86.319V78.8362Z" fill="#FAFCFF"/>
<path d="M93.8017 78.8362H90.0603V82.5776H93.8017V78.8362Z" fill="#FAFCFF"/>
<path d="M101.284 78.8362H97.5431V82.5776H101.284V78.8362Z" fill="#FAFCFF"/>
<path d="M105.026 78.8362H101.284V82.5776H105.026V78.8362Z" fill="#FAFCFF"/>
<path d="M112.509 78.8362H108.767V82.5776H112.509V78.8362Z" fill="#FAFCFF"/>
<path d="M18.9741 82.5776H15.2328V86.319H18.9741V82.5776Z" fill="#FAFCFF"/>
<path d="M26.4569 82.5776H22.7155V86.319H26.4569V82.5776Z" fill="#FAFCFF"/>
<path d="M30.1983 82.5776H26.4569V86.319H30.1983V82.5776Z" fill="#FAFCFF"/>
<path d="M33.9397 82.5776H30.1983V86.319H33.9397V82.5776Z" fill="#FAFCFF"/>
<path d="M41.4224 82.5776H37.681V86.319H41.4224V82.5776Z" fill="#FAFCFF"/>
<path d="M45.1638 82.5776H41.4224V86.319H45.1638V82.5776Z" fill="#FAFCFF"/>
<path d="M48.9052 82.5776H45.1638V86.319H48.9052V82.5776Z" fill="#FAFCFF"/>
<path d="M60.1293 82.5776H56.3879V86.319H60.1293V82.5776Z" fill="#FAFCFF"/>
<path d="M67.6121 82.5776H63.8707V86.319H67.6121V82.5776Z" fill="#FAFCFF"/>
<path d="M75.0948 82.5776H71.3534V86.319H75.0948V82.5776Z" fill="#FAFCFF"/>
<path d="M78.8362 82.5776H75.0948V86.319H78.8362V82.5776Z" fill="#FAFCFF"/>
<path d="M82.5776 82.5776H78.8362V86.319H82.5776V82.5776Z" fill="#FAFCFF"/>
<path d="M86.319 82.5776H82.5776V86.319H86.319V82.5776Z" fill="#FAFCFF"/>
<path d="M90.0603 82.5776H86.319V86.319H90.0603V82.5776Z" fill="#FAFCFF"/>
<path d="M93.8017 82.5776H90.0603V86.319H93.8017V82.5776Z" fill="#FAFCFF"/>
<path d="M97.5431 82.5776H93.8017V86.319H97.5431V82.5776Z" fill="#FAFCFF"/>
<path d="M101.284 82.5776H97.5431V86.319H101.284V82.5776Z" fill="#FAFCFF"/>
<path d="M108.767 82.5776H105.026V86.319H108.767V82.5776Z" fill="#FAFCFF"/>
<path d="M112.509 82.5776H108.767V86.319H112.509V82.5776Z" fill="#FAFCFF"/>
<path d="M41.4224 86.319H37.681V90.0603H41.4224V86.319Z" fill="#FAFCFF"/>
<path d="M78.8362 86.319H75.0948V90.0603H78.8362V86.319Z" fill="#FAFCFF"/>
<path d="M82.5776 86.319H78.8362V90.0603H82.5776V86.319Z" fill="#FAFCFF"/>
<path d="M86.319 86.319H82.5776V90.0603H86.319V86.319Z" fill="#FAFCFF"/>
<path d="M101.284 86.319H97.5431V90.0603H101.284V86.319Z" fill="#FAFCFF"/>
<path d="M105.026 86.319H101.284V90.0603H105.026V86.319Z" fill="#FAFCFF"/>
<path d="M11.4914 90.0603H7.75V93.8017H11.4914V90.0603Z" fill="#FAFCFF"/>
<path d="M15.2328 90.0603H11.4914V93.8017H15.2328V90.0603Z" fill="#FAFCFF"/>
<path d="M18.9741 90.0603H15.2328V93.8017H18.9741V90.0603Z" fill="#FAFCFF"/>
<path d="M22.7155 90.0603H18.9741V93.8017H22.7155V90.0603Z" fill="#FAFCFF"/>
<path d="M26.4569 90.0603H22.7155V93.8017H26.4569V90.0603Z" fill="#FAFCFF"/>
<path d="M30.1983 90.0603H26.4569V93.8017H30.1983V90.0603Z" fill="#FAFCFF"/>
<path d="M33.9397 90.0603H30.1983V93.8017H33.9397V90.0603Z" fill="#FAFCFF"/>
<path d="M45.1638 90.0603H41.4224V93.8017H45.1638V90.0603Z" fill="#FAFCFF"/>
<path d="M56.3879 90.0603H52.6466V93.8017H56.3879V90.0603Z" fill="#FAFCFF"/>
<path d="M60.1293 90.0603H56.3879V93.8017H60.1293V90.0603Z" fill="#FAFCFF"/>
<path d="M63.8707 90.0603H60.1293V93.8017H63.8707V90.0603Z" fill="#FAFCFF"/>
<path d="M71.3534 90.0603H67.6121V93.8017H71.3534V90.0603Z" fill="#FAFCFF"/>
<path d="M78.8362 90.0603H75.0948V93.8017H78.8362V90.0603Z" fill="#FAFCFF"/>
<path d="M86.319 90.0603H82.5776V93.8017H86.319V90.0603Z" fill="#FAFCFF"/>
<path d="M93.8017 90.0603H90.0603V93.8017H93.8017V90.0603Z" fill="#FAFCFF"/>
<path d="M101.284 90.0603H97.5431V93.8017H101.284V90.0603Z" fill="#FAFCFF"/>
<path d="M108.767 90.0603H105.026V93.8017H108.767V90.0603Z" fill="#FAFCFF"/>
<path d="M112.509 90.0603H108.767V93.8017H112.509V90.0603Z" fill="#FAFCFF"/>
<path d="M11.4914 93.8017H7.75V97.5431H11.4914V93.8017Z" fill="#FAFCFF"/>
<path d="M33.9397 93.8017H30.1983V97.5431H33.9397V93.8017Z" fill="#FAFCFF"/>
<path d="M56.3879 93.8017H52.6466V97.5431H56.3879V93.8017Z" fill="#FAFCFF"/>
<path d="M60.1293 93.8017H56.3879V97.5431H60.1293V93.8017Z" fill="#FAFCFF"/>
<path d="M63.8707 93.8017H60.1293V97.5431H63.8707V93.8017Z" fill="#FAFCFF"/>
<path d="M71.3534 93.8017H67.6121V97.5431H71.3534V93.8017Z" fill="#FAFCFF"/>
<path d="M75.0948 93.8017H71.3534V97.5431H75.0948V93.8017Z" fill="#FAFCFF"/>
<path d="M78.8362 93.8017H75.0948V97.5431H78.8362V93.8017Z" fill="#FAFCFF"/>
<path d="M86.319 93.8017H82.5776V97.5431H86.319V93.8017Z" fill="#FAFCFF"/>
<path d="M101.284 93.8017H97.5431V97.5431H101.284V93.8017Z" fill="#FAFCFF"/>
<path d="M105.026 93.8017H101.284V97.5431H105.026V93.8017Z" fill="#FAFCFF"/>
<path d="M108.767 93.8017H105.026V97.5431H108.767V93.8017Z" fill="#FAFCFF"/>
<path d="M11.4914 97.5431H7.75V101.284H11.4914V97.5431Z" fill="#FAFCFF"/>
<path d="M18.9741 97.5431H15.2328V101.284H18.9741V97.5431Z" fill="#FAFCFF"/>
<path d="M22.7155 97.5431H18.9741V101.284H22.7155V97.5431Z" fill="#FAFCFF"/>
<path d="M26.4569 97.5431H22.7155V101.284H26.4569V97.5431Z" fill="#FAFCFF"/>
<path d="M33.9397 97.5431H30.1983V101.284H33.9397V97.5431Z" fill="#FAFCFF"/>
<path d="M45.1638 97.5431H41.4224V101.284H45.1638V97.5431Z" fill="#FAFCFF"/>
<path d="M48.9052 97.5431H45.1638V101.284H48.9052V97.5431Z" fill="#FAFCFF"/>
<path d="M52.6466 97.5431H48.9052V101.284H52.6466V97.5431Z" fill="#FAFCFF"/>
<path d="M60.1293 97.5431H56.3879V101.284H60.1293V97.5431Z" fill="#FAFCFF"/>
<path d="M63.8707 97.5431H60.1293V101.284H63.8707V97.5431Z" fill="#FAFCFF"/>
<path d="M75.0948 97.5431H71.3534V101.284H75.0948V97.5431Z" fill="#FAFCFF"/>
<path d="M78.8362 97.5431H75.0948V101.284H78.8362V97.5431Z" fill="#FAFCFF"/>
<path d="M82.5776 97.5431H78.8362V101.284H82.5776V97.5431Z" fill="#FAFCFF"/>
<path d="M86.319 97.5431H82.5776V101.284H86.319V97.5431Z" fill="#FAFCFF"/>
<path d="M90.0603 97.5431H86.319V101.284H90.0603V97.5431Z" fill="#FAFCFF"/>
<path d="M93.8017 97.5431H90.0603V101.284H93.8017V97.5431Z" fill="#FAFCFF"/>
<path d="M97.5431 97.5431H93.8017V101.284H97.5431V97.5431Z" fill="#FAFCFF"/>
<path d="M101.284 97.5431H97.5431V101.284H101.284V97.5431Z" fill="#FAFCFF"/>
<path d="M108.767 97.5431H105.026V101.284H108.767V97.5431Z" fill="#FAFCFF"/>
<path d="M116.25 97.5431H112.509V101.284H116.25V97.5431Z" fill="#FAFCFF"/>
<path d="M11.4914 101.284H7.75V105.026H11.4914V101.284Z" fill="#FAFCFF"/>
<path d="M18.9741 101.284H15.2328V105.026H18.9741V101.284Z" fill="#FAFCFF"/>
<path d="M22.7155 101.284H18.9741V105.026H22.7155V101.284Z" fill="#FAFCFF"/>
<path d="M26.4569 101.284H22.7155V105.026H26.4569V101.284Z" fill="#FAFCFF"/>
<path d="M33.9397 101.284H30.1983V105.026H33.9397V101.284Z" fill="#FAFCFF"/>
<path d="M48.9052 101.284H45.1638V105.026H48.9052V101.284Z" fill="#FAFCFF"/>
<path d="M56.3879 101.284H52.6466V105.026H56.3879V101.284Z" fill="#FAFCFF"/>
<path d="M60.1293 101.284H56.3879V105.026H60.1293V101.284Z" fill="#FAFCFF"/>
<path d="M67.6121 101.284H63.8707V105.026H67.6121V101.284Z" fill="#FAFCFF"/>
<path d="M78.8362 101.284H75.0948V105.026H78.8362V101.284Z" fill="#FAFCFF"/>
<path d="M82.5776 101.284H78.8362V105.026H82.5776V101.284Z" fill="#FAFCFF"/>
<path d="M90.0603 101.284H86.319V105.026H90.0603V101.284Z" fill="#FAFCFF"/>
<path d="M93.8017 101.284H90.0603V105.026H93.8017V101.284Z" fill="#FAFCFF"/>
<path d="M97.5431 101.284H93.8017V105.026H97.5431V101.284Z" fill="#FAFCFF"/>
<path d="M108.767 101.284H105.026V105.026H108.767V101.284Z" fill="#FAFCFF"/>
<path d="M112.509 101.284H108.767V105.026H112.509V101.284Z" fill="#FAFCFF"/>
<path d="M116.25 101.284H112.509V105.026H116.25V101.284Z" fill="#FAFCFF"/>
<path d="M11.4914 105.026H7.75V108.767H11.4914V105.026Z" fill="#FAFCFF"/>
<path d="M18.9741 105.026H15.2328V108.767H18.9741V105.026Z" fill="#FAFCFF"/>
<path d="M22.7155 105.026H18.9741V108.767H22.7155V105.026Z" fill="#FAFCFF"/>
<path d="M26.4569 105.026H22.7155V108.767H26.4569V105.026Z" fill="#FAFCFF"/>
<path d="M33.9397 105.026H30.1983V108.767H33.9397V105.026Z" fill="#FAFCFF"/>
<path d="M45.1638 105.026H41.4224V108.767H45.1638V105.026Z" fill="#FAFCFF"/>
<path d="M48.9052 105.026H45.1638V108.767H48.9052V105.026Z" fill="#FAFCFF"/>
<path d="M63.8707 105.026H60.1293V108.767H63.8707V105.026Z" fill="#FAFCFF"/>
<path d="M67.6121 105.026H63.8707V108.767H67.6121V105.026Z" fill="#FAFCFF"/>
<path d="M71.3534 105.026H67.6121V108.767H71.3534V105.026Z" fill="#FAFCFF"/>
<path d="M78.8362 105.026H75.0948V108.767H78.8362V105.026Z" fill="#FAFCFF"/>
<path d="M86.319 105.026H82.5776V108.767H86.319V105.026Z" fill="#FAFCFF"/>
<path d="M90.0603 105.026H86.319V108.767H90.0603V105.026Z" fill="#FAFCFF"/>
<path d="M112.509 105.026H108.767V108.767H112.509V105.026Z" fill="#FAFCFF"/>
<path d="M116.25 105.026H112.509V108.767H116.25V105.026Z" fill="#FAFCFF"/>
<path d="M11.4914 108.767H7.75V112.509H11.4914V108.767Z" fill="#FAFCFF"/>
<path d="M33.9397 108.767H30.1983V112.509H33.9397V108.767Z" fill="#FAFCFF"/>
<path d="M41.4224 108.767H37.681V112.509H41.4224V108.767Z" fill="#FAFCFF"/>
<path d="M45.1638 108.767H41.4224V112.509H45.1638V108.767Z" fill="#FAFCFF"/>
<path d="M52.6466 108.767H48.9052V112.509H52.6466V108.767Z" fill="#FAFCFF"/>
<path d="M60.1293 108.767H56.3879V112.509H60.1293V108.767Z" fill="#FAFCFF"/>
<path d="M67.6121 108.767H63.8707V112.509H67.6121V108.767Z" fill="#FAFCFF"/>
<path d="M97.5431 108.767H93.8017V112.509H97.5431V108.767Z" fill="#FAFCFF"/>
<path d="M101.284 108.767H97.5431V112.509H101.284V108.767Z" fill="#FAFCFF"/>
<path d="M105.026 108.767H101.284V112.509H105.026V108.767Z" fill="#FAFCFF"/>
<path d="M108.767 108.767H105.026V112.509H108.767V108.767Z" fill="#FAFCFF"/>
<path d="M11.4914 112.509H7.75V116.25H11.4914V112.509Z" fill="#FAFCFF"/>
<path d="M15.2328 112.509H11.4914V116.25H15.2328V112.509Z" fill="#FAFCFF"/>
<path d="M18.9741 112.509H15.2328V116.25H18.9741V112.509Z" fill="#FAFCFF"/>
<path d="M22.7155 112.509H18.9741V116.25H22.7155V112.509Z" fill="#FAFCFF"/>
<path d="M26.4569 112.509H22.7155V116.25H26.4569V112.509Z" fill="#FAFCFF"/>
<path d="M30.1983 112.509H26.4569V116.25H30.1983V112.509Z" fill="#FAFCFF"/>
<path d="M33.9397 112.509H30.1983V116.25H33.9397V112.509Z" fill="#FAFCFF"/>
<path d="M41.4224 112.509H37.681V116.25H41.4224V112.509Z" fill="#FAFCFF"/>
<path d="M56.3879 112.509H52.6466V116.25H56.3879V112.509Z" fill="#FAFCFF"/>
<path d="M60.1293 112.509H56.3879V116.25H60.1293V112.509Z" fill="#FAFCFF"/>
<path d="M67.6121 112.509H63.8707V116.25H67.6121V112.509Z" fill="#FAFCFF"/>
<path d="M78.8362 112.509H75.0948V116.25H78.8362V112.509Z" fill="#FAFCFF"/>
<path d="M82.5776 112.509H78.8362V116.25H82.5776V112.509Z" fill="#FAFCFF"/>
<path d="M97.5431 112.509H93.8017V116.25H97.5431V112.509Z" fill="#FAFCFF"/>
<path d="M101.284 112.509H97.5431V116.25H101.284V112.509Z" fill="#FAFCFF"/>
<path d="M112.509 112.509H108.767V116.25H112.509V112.509Z" fill="#FAFCFF"/>
</g>
<rect x="0.5" y="0.5" width="123" height="123" rx="7.5" stroke="white"/>
<defs>
<clipPath id="clip0_1020_2157">
<rect width="124" height="124" rx="8" fill="white"/>
</clipPath>
</defs>
</svg>
